<svg width="209" height="56" viewBox="0 0 209 56" fill="none" xmlns="http://www.w3.org/2000/svg">
<path d="M73.8937 24.1165V25.5266C73.8937 25.9183 73.972 26.2316 74.1285 26.3883C74.2851 26.545 74.5199 26.6233 74.7547 26.6233C74.9896 26.6233 75.2244 26.545 75.381 26.3883C75.5375 26.2316 75.6158 25.9183 75.6158 25.5266V23.1765H74.0503V21.6097H75.6158V19.6513C75.6158 19.2596 75.5375 18.9462 75.381 18.7896C75.2244 18.6329 74.9896 18.5545 74.7547 18.5545C74.5199 18.5545 74.2851 18.6329 74.1285 18.7896C73.972 18.9462 73.8937 19.2596 73.8937 19.6513V20.6697H72.3282V19.7296C72.3282 18.8679 72.563 18.1629 72.9544 17.6928C73.3458 17.2228 73.972 16.9878 74.833 16.9878C75.6941 16.9878 76.3203 17.2228 76.79 17.6928C77.2596 18.1629 77.4162 18.8679 77.4162 19.7296V25.4482C77.4162 26.31 77.1813 27.015 76.79 27.485C76.3203 27.955 75.6941 28.1901 74.833 28.1901C73.972 28.1901 73.3458 27.955 72.8761 27.485C72.4064 27.015 72.2499 26.31 72.2499 25.4482V24.1165H73.8937Z" fill="white"/>
<path d="M80.9387 23.7249L80.3908 24.7433V28.1118H78.6687V17.1445H80.3908V21.9231L82.6608 17.1445H84.3829L81.9563 22.0015L84.3829 28.1118H82.5826L80.9387 23.7249Z" fill="white"/>
<path d="M90.3319 23.9598V25.4482C90.3319 26.31 90.0971 27.015 89.7057 27.485C89.236 27.955 88.6098 28.1901 87.827 28.1901C87.0443 28.1901 86.3398 27.955 85.8701 27.485C85.4004 27.015 85.2439 26.31 85.2439 25.4482V19.7296C85.2439 18.8679 85.4787 18.1629 85.8701 17.6928C86.3398 17.2228 86.966 16.9878 87.827 16.9878C88.6881 16.9878 89.3143 17.2228 89.7057 17.6928C90.1754 18.1629 90.3319 18.8679 90.3319 19.7296V20.8263H88.6881V19.6513C88.6881 19.2596 88.6098 18.9462 88.4533 18.7896C88.2967 18.6329 88.0619 18.5545 87.827 18.5545C87.5922 18.5545 87.3574 18.6329 87.2008 18.7896C87.0443 18.9462 86.966 19.2596 86.966 19.6513V25.6049C86.966 25.9966 87.0443 26.31 87.2008 26.4666C87.3574 26.6233 87.5922 26.7016 87.827 26.7016C88.0619 26.7016 88.2967 26.6233 88.4533 26.4666C88.6098 26.31 88.6881 25.9966 88.6881 25.6049V24.0382H90.3319V23.9598Z" fill="white"/>
<path d="M93.2282 28.1118H91.5061V17.1445H96.9072V28.1118H95.1851V18.7113H93.2282V28.1118Z" fill="white"/>
<path d="M100.117 21.7664H102.465V23.3332H100.117V26.545H103.091V28.1118H98.3944V17.1445H103.091V18.7113H100.117V21.7664Z" fill="white"/>
<path d="M106.848 17.1445C107.709 17.1445 108.336 17.3795 108.805 17.8496C109.197 18.3196 109.432 18.9463 109.432 19.8863V21.2964C109.432 22.1581 109.197 22.8632 108.805 23.3332C108.414 23.8032 107.709 24.0382 106.848 24.0382H106.066V28.1901H104.344V17.2229H106.848V17.1445ZM105.987 18.7113V22.3931H106.77C107.005 22.3931 107.24 22.3148 107.396 22.1581C107.553 22.0015 107.631 21.7664 107.631 21.3748V19.7297C107.631 19.338 107.553 19.0246 107.396 18.9463C107.24 18.7896 107.005 18.7113 106.77 18.7113H105.987Z" fill="white"/>
<path d="M109.823 17.1445H115.146V18.7113H113.345V28.1118H111.623V18.7113H109.823V17.1445Z" fill="white"/>
<path d="M117.807 28.1118H116.085V17.1445H117.807V21.8448H119.764V17.1445H121.486V28.1118H119.764V23.4115H117.807V28.1118Z" fill="white"/>
<path d="M122.895 28.1118V17.1445H124.617V21.2964H125.4C126.261 21.2964 126.887 21.5314 127.357 22.0015C127.748 22.4715 127.983 23.0982 127.983 24.0382V25.4483C127.983 26.31 127.748 27.0151 127.357 27.4851C126.966 27.9551 126.261 28.1901 125.4 28.1901H122.895V28.1118ZM125.478 26.545C125.713 26.545 125.948 26.4667 126.105 26.31C126.261 26.1533 126.339 25.9183 126.339 25.5266V23.8816C126.339 23.4899 126.261 23.1765 126.105 23.0982C125.948 22.9415 125.713 22.8632 125.478 22.8632H124.696V26.545H125.478ZM129.001 28.1118V17.1445H130.723V28.1118H129.001Z" fill="white"/>
<path d="M133.932 28.1118H132.132V17.1445H133.697V24.1165L134.324 21.6881L135.733 17.1445H137.611V28.1118H136.046V20.3563L135.341 23.0198L133.932 28.1118ZM136.75 14.6377C136.75 15.1861 136.594 15.5777 136.281 15.8911C135.968 16.2044 135.498 16.3611 134.872 16.3611C134.245 16.3611 133.854 16.2044 133.541 15.8911C133.228 15.5777 133.071 15.1861 133.071 14.6377H134.167C134.167 14.951 134.245 15.1077 134.402 15.1861C134.559 15.2644 134.715 15.3427 134.95 15.3427C135.185 15.3427 135.341 15.2644 135.498 15.1861C135.654 15.1077 135.733 14.8727 135.733 14.6377H136.75Z" fill="white"/>
<path d="M141.604 17.1445H143.326V26.545H145.283V17.1445H147.005V26.545H147.787V29.5219H146.144V28.0335H141.604V17.1445Z" fill="white"/>
<path d="M150.605 21.7664H152.954V23.3332H150.605V26.545H153.58V28.1118H148.883V17.1445H153.58V18.7113H150.605V21.7664Z" fill="white"/>
<path d="M156.554 28.1118H154.832V17.1445H156.554V21.8448H158.511V17.1445H160.233V28.1118H158.511V23.4115H156.554V28.1118Z" fill="white"/>
<path d="M161.173 17.1445H166.496V18.7113H164.695V28.1118H162.973V18.7113H161.173V17.1445Z" fill="white"/>
<path d="M169.94 17.1445C170.801 17.1445 171.427 17.3795 171.897 17.8496C172.288 18.3196 172.523 18.9463 172.523 19.8863V21.2964C172.523 22.1581 172.288 22.8632 171.897 23.3332C171.505 23.8032 170.801 24.0382 169.94 24.0382H169.157V28.1901H167.435V17.2229H169.94V17.1445ZM169.079 18.7113V22.3931H169.862C170.096 22.3931 170.331 22.3148 170.488 22.1581C170.644 22.0015 170.723 21.7664 170.723 21.3748V19.7297C170.723 19.338 170.644 19.0246 170.488 18.9463C170.331 18.7896 170.096 18.7113 169.862 18.7113H169.079Z" fill="white"/>
<path d="M77.4952 42.7609V44.2493C77.4952 45.111 77.2604 45.816 76.869 46.2861C76.3994 46.7561 75.7731 46.9911 74.9904 46.9911C74.2076 46.9911 73.5031 46.7561 73.0334 46.2861C72.5638 45.816 72.4072 45.111 72.4072 44.2493V38.5306C72.4072 37.6689 72.6421 36.9639 73.0334 36.4939C73.5031 36.0238 74.1293 35.7888 74.9904 35.7888C75.8514 35.7888 76.4776 36.0238 76.869 36.4939C77.3387 36.9639 77.4952 37.6689 77.4952 38.5306V39.6274H75.8514V38.4523C75.8514 38.0606 75.7731 37.7473 75.6166 37.5906C75.46 37.4339 75.2252 37.3556 74.9904 37.3556C74.7555 37.3556 74.5207 37.4339 74.3642 37.5906C74.2076 37.7473 74.1293 38.0606 74.1293 38.4523V44.406C74.1293 44.7976 74.2076 45.111 74.3642 45.2677C74.5207 45.4243 74.7555 45.5027 74.9904 45.5027C75.2252 45.5027 75.46 45.4243 75.6166 45.2677C75.7731 45.111 75.8514 44.7976 75.8514 44.406V42.8392H77.4952V42.7609Z" fill="#FF6600"/>
<path d="M78.5903 38.5306C78.5903 37.6689 78.8252 36.9639 79.2948 36.4939C79.7645 36.0238 80.3907 35.7888 81.2518 35.7888C82.1128 35.7888 82.739 36.0238 83.2087 36.4939C83.6783 36.9639 83.9132 37.6689 83.9132 38.5306V44.2493C83.9132 45.111 83.6783 45.816 83.2087 46.2861C82.739 46.7561 82.1128 46.9911 81.2518 46.9911C80.3907 46.9911 79.7645 46.7561 79.2948 46.2861C78.8252 45.816 78.5903 45.111 78.5903 44.2493V38.5306ZM80.3124 44.3276C80.3124 44.7193 80.3907 45.0327 80.5473 45.1893C80.7038 45.346 80.9386 45.4243 81.1735 45.4243C81.4083 45.4243 81.6431 45.346 81.7997 45.1893C81.9562 45.0327 82.0345 44.7193 82.0345 44.3276V38.374C82.0345 37.9823 81.9562 37.6689 81.7997 37.5122C81.6431 37.3556 81.4083 37.2772 81.1735 37.2772C80.9386 37.2772 80.7038 37.3556 80.5473 37.5122C80.3907 37.6689 80.3124 37.9823 80.3124 38.374V44.3276Z" fill="#FF6600"/>
<path d="M85.0874 35.9453H86.8095V45.3458H88.7664V35.9453H90.4885V45.3458H91.2713V48.3226H89.6275V46.8342H85.0874V35.9453Z" fill="#FF6600"/>
<path d="M94.0892 46.9126H92.3671V35.9453H93.9326V42.9174L94.5588 40.4889L95.9678 35.9453H97.8465V46.9126H96.2809V39.1571L95.5764 41.8206L94.0892 46.9126Z" fill="#FF6600"/>
<path d="M99.0208 38.5306C99.0208 37.6689 99.2556 36.9639 99.7252 36.4939C100.195 36.0238 100.821 35.7888 101.682 35.7888C102.543 35.7888 103.169 36.0238 103.639 36.4939C104.109 36.9639 104.344 37.6689 104.344 38.5306V44.2493C104.344 45.111 104.109 45.816 103.639 46.2861C103.169 46.7561 102.543 46.9911 101.682 46.9911C100.821 46.9911 100.195 46.7561 99.7252 46.2861C99.2556 45.816 99.0208 45.111 99.0208 44.2493V38.5306ZM100.743 44.3276C100.743 44.7193 100.821 45.0327 100.978 45.1893C101.134 45.346 101.369 45.4243 101.604 45.4243C101.839 45.4243 102.074 45.346 102.23 45.1893C102.387 45.0327 102.465 44.7193 102.465 44.3276V38.374C102.465 37.9823 102.387 37.6689 102.23 37.5122C102.074 37.3556 101.839 37.2772 101.604 37.2772C101.369 37.2772 101.134 37.3556 100.978 37.5122C100.821 37.6689 100.743 37.9823 100.743 38.374V44.3276Z" fill="#FF6600"/>
<path d="M105.048 45.3458C105.283 45.3458 105.439 45.3458 105.518 45.3458C105.674 45.3458 105.753 45.2675 105.831 45.1891C105.909 45.1108 105.987 45.0325 105.987 44.8758C105.987 44.7191 106.066 44.4841 106.066 44.2491L106.379 35.9453H111.232V46.9126H109.51V37.5121H108.023L107.866 44.1708C107.866 45.1891 107.631 45.8942 107.24 46.2859C106.848 46.6776 106.222 46.9126 105.361 46.9126H105.126V45.3458H105.048Z" fill="#FF6600"/>
<path d="M112.563 38.5306C112.563 37.6689 112.797 36.9639 113.267 36.4939C113.737 36.0238 114.363 35.7888 115.224 35.7888C116.085 35.7888 116.711 36.0238 117.181 36.4939C117.651 36.9639 117.885 37.6689 117.885 38.5306V44.2493C117.885 45.111 117.651 45.816 117.181 46.2861C116.711 46.7561 116.085 46.9911 115.224 46.9911C114.363 46.9911 113.737 46.7561 113.267 46.2861C112.797 45.816 112.563 45.111 112.563 44.2493V38.5306ZM114.285 44.3276C114.285 44.7193 114.363 45.0327 114.52 45.1893C114.676 45.346 114.911 45.4243 115.146 45.4243C115.381 45.4243 115.615 45.346 115.772 45.1893C115.929 45.0327 116.007 44.7193 116.007 44.3276V38.374C116.007 37.9823 115.929 37.6689 115.772 37.5122C115.615 37.3556 115.381 37.2772 115.146 37.2772C114.911 37.2772 114.676 37.3556 114.52 37.5122C114.363 37.6689 114.285 37.9823 114.285 38.374V44.3276Z" fill="#FF6600"/>
<path d="M119.138 46.9126V35.9453H123.678V37.5121H120.86V46.9126H119.138Z" fill="#FF6600"/>
<path d="M126.731 46.9126H124.93V35.9453H126.496V42.9174L127.122 40.4889L128.531 35.9453H130.41V46.9126H128.844V39.1571L128.14 41.8206L126.731 46.9126Z" fill="#FF6600"/>
<path d="M131.506 46.9126C131.584 46.6776 131.662 46.5209 131.662 46.2859C131.662 46.0509 131.662 45.8158 131.662 45.5808V43.8574C131.662 43.309 131.741 42.7607 131.897 42.369C132.054 41.9773 132.367 41.664 132.758 41.5073C131.975 41.1156 131.662 40.4106 131.662 39.3138V38.4521C131.662 37.5904 131.897 36.9637 132.289 36.572C132.68 36.1803 133.306 35.9453 134.245 35.9453H136.829V46.9126H135.106V42.4473H134.48C134.089 42.4473 133.776 42.5257 133.619 42.7607C133.463 42.9957 133.384 43.309 133.384 43.8574V45.5808C133.384 45.8158 133.384 45.9725 133.384 46.1292C133.384 46.2859 133.384 46.3642 133.384 46.5209C133.384 46.5992 133.384 46.6776 133.306 46.7559C133.228 46.8342 133.228 46.9126 133.228 46.9909H131.506V46.9126ZM134.324 37.5121C134.011 37.5121 133.776 37.5904 133.619 37.7471C133.463 37.9038 133.384 38.2171 133.384 38.6088V39.7055C133.384 40.1755 133.463 40.4106 133.619 40.6456C133.776 40.8806 134.089 40.8806 134.402 40.8806H135.106V37.5121H134.324Z" fill="#FF6600"/>
<path d="M142.621 46.9126H140.821V35.9453H142.386V42.9174L143.012 40.4889L144.421 35.9453H146.3V46.9126H144.735V39.1571L144.03 41.8206L142.621 46.9126Z" fill="#FF6600"/>
<path d="M155.85 46.9126H154.128L153.815 44.9541H151.701L151.388 46.9126H149.823L151.545 35.9453H154.049L155.85 46.9126ZM151.936 43.3874H153.58L152.719 37.8254L151.936 43.3874Z" fill="#FF6600"/>
<path d="M158.511 46.9126H156.789V35.9453H158.511V40.6456H160.468V35.9453H162.19V46.9126H160.468V42.2123H158.511V46.9126Z" fill="#FF6600"/>
<path d="M169.235 46.9126H167.513L167.2 44.9541H165.087L164.774 46.9126H163.208L164.93 35.9453H167.435L169.235 46.9126ZM165.243 43.3874H166.887L166.026 37.8254L165.243 43.3874Z" fill="#FF6600"/>
<path d="M169.705 45.3458C169.94 45.3458 170.096 45.3458 170.175 45.3458C170.331 45.3458 170.409 45.2675 170.488 45.1891C170.566 45.1108 170.644 45.0325 170.644 44.8758C170.644 44.7191 170.723 44.4841 170.723 44.2491L171.036 35.9453H175.889V46.9126H174.167V37.5121H172.679L172.523 44.1708C172.523 45.1891 172.288 45.8942 171.897 46.2859C171.505 46.6776 170.879 46.9126 170.018 46.9126H169.783V45.3458H169.705Z" fill="#FF6600"/>
<path d="M179.098 46.9126H177.298V35.9453H178.863V42.9174L179.49 40.4889L180.899 35.9453H182.777V46.9126H181.212V39.1571L180.507 41.8206L179.098 46.9126Z" fill="#FF6600"/>
<path d="M183.717 35.9453H189.039V37.5121H187.239V46.9126H185.517V37.5121H183.717V35.9453Z" fill="#FF6600"/>
<path d="M191.701 46.9126H189.901V35.9453H191.466V42.9174L192.092 40.4889L193.501 35.9453H195.38V46.9126H193.814V39.1571L193.11 41.8206L191.701 46.9126Z" fill="#FF6600"/>
<path d="M199.059 42.5257L198.511 43.5441V46.9126H196.789V35.9453H198.511V40.7239L200.781 35.9453H202.503L200.076 40.8022L202.503 46.9126H200.703L199.059 42.5257Z" fill="#FF6600"/>
<path d="M209 46.9126H207.278L206.965 44.9541H204.851L204.538 46.9126H202.973L204.695 35.9453H207.2L209 46.9126ZM205.086 43.3874H206.73L205.869 37.8254L205.086 43.3874Z" fill="#FF6600"/>
<path d="M41.4869 56.0001H0L41.4869 14.4812V56.0001Z" fill="url(#paint0_linear)"/>
<path d="M17.1427 38.6873L10.5674 44.8759L41.4869 44.7976V38.7656L17.1427 38.6873Z" fill="url(#paint1_linear)"/>
<path d="M20.6652 25.4485C25.988 25.4485 30.2933 29.757 30.2933 35.084C30.2933 40.4109 25.988 44.7195 20.6652 44.7195C15.3423 44.7195 11.0371 40.4109 11.0371 35.084C11.0371 29.757 15.3423 25.4485 20.6652 25.4485ZM20.6652 14.4812C9.2367 14.4812 0 23.725 0 35.1623C0 46.5996 9.2367 55.7651 20.5869 55.7651C31.9371 55.7651 41.1738 46.5213 41.1738 35.1623C41.1738 23.8034 32.0154 14.4812 20.6652 14.4812Z" fill="url(#paint2_linear)"/>
<path d="M38.8254 44.7976C32.8764 44.7976 27.0056 44.7976 21.0565 44.7976C21.9958 44.7193 23.4048 44.4842 24.9704 43.7009C26.1445 43.0742 26.9273 42.3691 27.4752 41.8208C31.7022 41.8208 35.8509 41.8208 40.0779 41.7424C39.9996 41.9774 39.9213 42.2908 39.7648 42.5258C39.5299 43.3875 39.2168 44.0926 38.8254 44.7976Z" fill="url(#paint3_linear)"/>
<path d="M55.1853 34.6921V0.771973L13.7767 41.8992H47.5925L55.1853 34.6921Z" fill="url(#paint4_linear)"/>
<path d="M55.1854 34.6924L47.5925 41.8994V34.6924H55.1854Z" fill="url(#paint5_linear)"/>
<defs>
<linearGradient id="paint0_linear" x1="15.1426" y1="29.6591" x2="37.6963" y2="52.1955" gradientUnits="userSpaceOnUse">
<stop stop-color="#33CC33"/>
<stop offset="1" stop-color="#339C4C"/>
</linearGradient>
<linearGradient id="paint1_linear" x1="9.17335" y1="41.8056" x2="40.0925" y2="41.8056" gradientUnits="userSpaceOnUse">
<stop stop-color="#33A933"/>
<stop offset="1" stop-color="#336B4C"/>
</linearGradient>
<linearGradient id="paint2_linear" x1="0" y1="14.4812" x2="35.3555" y2="66.8622" gradientUnits="userSpaceOnUse">
<stop stop-color="#FFB300"/>
<stop offset="0.7025" stop-color="#FF6600"/>
</linearGradient>
<linearGradient id="paint3_linear" x1="15.8916" y1="43.2873" x2="34.9466" y2="43.2873" gradientUnits="userSpaceOnUse">
<stop offset="0.00537634" stop-color="#FF6600"/>
<stop offset="0.7025" stop-color="#CC5200"/>
</linearGradient>
<linearGradient id="paint4_linear" x1="36.2503" y1="23.1156" x2="48.0979" y2="34.954" gradientUnits="userSpaceOnUse">
<stop stop-color="#33CC33"/>
<stop offset="1" stop-color="#339C4C"/>
</linearGradient>
<linearGradient id="paint5_linear" x1="49.2484" y1="38.2882" x2="68.7452" y2="38.2882" gradientUnits="userSpaceOnUse">
<stop stop-color="#33CC33"/>
<stop offset="1" stop-color="#339C4C"/>
</linearGradient>
</defs>
</svg>
