<svg width="209" height="56" viewBox="0 0 209 56" fill="none" xmlns="http://www.w3.org/2000/svg">
<g clip-path="url(#clip0_3892:11700)">
<path d="M73.8938 24.1165V25.5266C73.8938 25.9183 73.9721 26.2316 74.1286 26.3883C74.2852 26.545 74.52 26.6233 74.7549 26.6233C74.9897 26.6233 75.2245 26.545 75.3811 26.3883C75.5376 26.2316 75.6159 25.9183 75.6159 25.5266V23.1765H74.0504V21.6097H75.6159V19.6513C75.6159 19.2596 75.5376 18.9462 75.3811 18.7896C75.2245 18.6329 74.9897 18.5545 74.7549 18.5545C74.52 18.5545 74.2852 18.6329 74.1286 18.7896C73.9721 18.9462 73.8938 19.2596 73.8938 19.6513V20.6697H72.3283V19.7296C72.3283 18.8679 72.5631 18.1629 72.9545 17.6928C73.3459 17.2228 73.9721 16.9878 74.8331 16.9878C75.6942 16.9878 76.3204 17.2228 76.7901 17.6928C77.2597 18.1629 77.4163 18.8679 77.4163 19.7296V25.4482C77.4163 26.31 77.1815 27.015 76.7901 27.485C76.3204 27.955 75.6942 28.1901 74.8331 28.1901C73.9721 28.1901 73.3459 27.955 72.8762 27.485C72.4066 27.015 72.25 26.31 72.25 25.4482V24.1165H73.8938Z" fill="white"/>
<path d="M80.938 23.7249L80.3901 24.7433V28.1118H78.668V17.1445H80.3901V21.9231L82.6601 17.1445H84.3822L81.9556 22.0015L84.3822 28.1118H82.5818L80.938 23.7249Z" fill="white"/>
<path d="M90.3322 23.9598V25.4482C90.3322 26.31 90.0973 27.015 89.706 27.485C89.2363 27.955 88.6101 28.1901 87.8273 28.1901C87.0445 28.1901 86.34 27.955 85.8704 27.485C85.4007 27.015 85.2441 26.31 85.2441 25.4482V19.7296C85.2441 18.8679 85.479 18.1629 85.8704 17.6928C86.34 17.2228 86.9662 16.9878 87.8273 16.9878C88.6883 16.9878 89.3146 17.2228 89.706 17.6928C90.1756 18.1629 90.3322 18.8679 90.3322 19.7296V20.8263H88.6883V19.6513C88.6883 19.2596 88.6101 18.9462 88.4535 18.7896C88.297 18.6329 88.0621 18.5545 87.8273 18.5545C87.5925 18.5545 87.3576 18.6329 87.2011 18.7896C87.0445 18.9462 86.9662 19.2596 86.9662 19.6513V25.6049C86.9662 25.9966 87.0445 26.31 87.2011 26.4666C87.3576 26.6233 87.5925 26.7016 87.8273 26.7016C88.0621 26.7016 88.297 26.6233 88.4535 26.4666C88.6101 26.31 88.6883 25.9966 88.6883 25.6049V24.0382H90.3322V23.9598Z" fill="white"/>
<path d="M93.228 28.1118H91.5059V17.1445H96.907V28.1118H95.1849V18.7113H93.228V28.1118Z" fill="white"/>
<path d="M100.117 21.7664H102.465V23.3332H100.117V26.545H103.091V28.1118H98.3945V17.1445H103.091V18.7113H100.117V21.7664Z" fill="white"/>
<path d="M106.849 17.1445C107.71 17.1445 108.336 17.3795 108.806 17.8496C109.197 18.3196 109.432 18.9463 109.432 19.8863V21.2964C109.432 22.1581 109.197 22.8632 108.806 23.3332C108.414 23.8032 107.71 24.0382 106.849 24.0382H106.066V28.1901H104.344V17.2229H106.849V17.1445ZM105.988 18.7113V22.3931H106.77C107.005 22.3931 107.24 22.3148 107.397 22.1581C107.553 22.0015 107.631 21.7664 107.631 21.3748V19.7297C107.631 19.338 107.553 19.0246 107.397 18.9463C107.24 18.7896 107.005 18.7113 106.77 18.7113H105.988Z" fill="white"/>
<path d="M109.822 17.1445H115.145V18.7113H113.345V28.1118H111.623V18.7113H109.822V17.1445Z" fill="white"/>
<path d="M117.808 28.1118H116.086V17.1445H117.808V21.8448H119.765V17.1445H121.487V28.1118H119.765V23.4115H117.808V28.1118Z" fill="white"/>
<path d="M122.895 28.1118V17.1445H124.617V21.2964H125.399C126.26 21.2964 126.887 21.5314 127.356 22.0015C127.748 22.4715 127.983 23.0982 127.983 24.0382V25.4483C127.983 26.31 127.748 27.0151 127.356 27.4851C126.965 27.9551 126.26 28.1901 125.399 28.1901H122.895V28.1118ZM125.478 26.545C125.713 26.545 125.947 26.4667 126.104 26.31C126.26 26.1533 126.339 25.9183 126.339 25.5266V23.8816C126.339 23.4899 126.26 23.1765 126.104 23.0982C125.947 22.9415 125.713 22.8632 125.478 22.8632H124.695V26.545H125.478ZM129 28.1118V17.1445H130.722V28.1118H129Z" fill="white"/>
<path d="M133.933 28.1118H132.133V17.1445H133.698V24.1165L134.325 21.6881L135.734 17.1445H137.612V28.1118H136.047V20.3563L135.342 23.0198L133.933 28.1118ZM136.751 14.6377C136.751 15.1861 136.595 15.5777 136.282 15.8911C135.968 16.2044 135.499 16.3611 134.873 16.3611C134.246 16.3611 133.855 16.2044 133.542 15.8911C133.229 15.5777 133.072 15.1861 133.072 14.6377H134.168C134.168 14.951 134.246 15.1077 134.403 15.1861C134.559 15.2644 134.716 15.3427 134.951 15.3427C135.186 15.3427 135.342 15.2644 135.499 15.1861C135.655 15.1077 135.734 14.8727 135.734 14.6377H136.751Z" fill="white"/>
<path d="M141.604 17.1445H143.326V26.545H145.283V17.1445H147.005V26.545H147.787V29.5219H146.144V28.0335H141.604V17.1445Z" fill="white"/>
<path d="M150.605 21.7664H152.953V23.3332H150.605V26.545H153.579V28.1118H148.883V17.1445H153.579V18.7113H150.605V21.7664Z" fill="white"/>
<path d="M156.554 28.1118H154.832V17.1445H156.554V21.8448H158.511V17.1445H160.233V28.1118H158.511V23.4115H156.554V28.1118Z" fill="white"/>
<path d="M161.174 17.1445H166.497V18.7113H164.696V28.1118H162.974V18.7113H161.174V17.1445Z" fill="white"/>
<path d="M169.94 17.1445C170.801 17.1445 171.428 17.3795 171.897 17.8496C172.289 18.3196 172.524 18.9463 172.524 19.8863V21.2964C172.524 22.1581 172.289 22.8632 171.897 23.3332C171.506 23.8032 170.801 24.0382 169.94 24.0382H169.158V28.1901H167.436V17.2229H169.94V17.1445ZM169.079 18.7113V22.3931H169.862C170.097 22.3931 170.332 22.3148 170.488 22.1581C170.645 22.0015 170.723 21.7664 170.723 21.3748V19.7297C170.723 19.338 170.645 19.0246 170.488 18.9463C170.332 18.7896 170.097 18.7113 169.862 18.7113H169.079Z" fill="white"/>
<path d="M77.4962 42.7611V44.2495C77.4962 45.1112 77.2614 45.8163 76.87 46.2863C76.4003 46.7563 75.7741 46.9913 74.9913 46.9913C74.2086 46.9913 73.5041 46.7563 73.0344 46.2863C72.5648 45.8163 72.4082 45.1112 72.4082 44.2495V38.5309C72.4082 37.6692 72.643 36.9641 73.0344 36.4941C73.5041 36.0241 74.1303 35.7891 74.9913 35.7891C75.8524 35.7891 76.4786 36.0241 76.87 36.4941C77.3397 36.9641 77.4962 37.6692 77.4962 38.5309V39.6276H75.8524V38.4525C75.8524 38.0609 75.7741 37.7475 75.6176 37.5908C75.461 37.4342 75.2262 37.3558 74.9913 37.3558C74.7565 37.3558 74.5217 37.4342 74.3651 37.5908C74.2086 37.7475 74.1303 38.0609 74.1303 38.4525V44.4062C74.1303 44.7979 74.2086 45.1112 74.3651 45.2679C74.5217 45.4246 74.7565 45.5029 74.9913 45.5029C75.2262 45.5029 75.461 45.4246 75.6176 45.2679C75.7741 45.1112 75.8524 44.7979 75.8524 44.4062V42.8394H77.4962V42.7611Z" fill="#FF6600"/>
<path d="M78.5898 38.5309C78.5898 37.6692 78.8247 36.9641 79.2943 36.4941C79.764 36.0241 80.3902 35.7891 81.2513 35.7891C82.1123 35.7891 82.7385 36.0241 83.2082 36.4941C83.6779 36.9641 83.9127 37.6692 83.9127 38.5309V44.2495C83.9127 45.1112 83.6779 45.8163 83.2082 46.2863C82.7385 46.7563 82.1123 46.9913 81.2513 46.9913C80.3902 46.9913 79.764 46.7563 79.2943 46.2863C78.8247 45.8163 78.5898 45.1112 78.5898 44.2495V38.5309ZM80.3119 44.3279C80.3119 44.7195 80.3902 45.0329 80.5468 45.1896C80.7033 45.3462 80.9382 45.4246 81.173 45.4246C81.4078 45.4246 81.6426 45.3462 81.7992 45.1896C81.9558 45.0329 82.034 44.7195 82.034 44.3279V38.3742C82.034 37.9825 81.9558 37.6692 81.7992 37.5125C81.6426 37.3558 81.4078 37.2775 81.173 37.2775C80.9382 37.2775 80.7033 37.3558 80.5468 37.5125C80.3902 37.6692 80.3119 37.9825 80.3119 38.3742V44.3279Z" fill="#FF6600"/>
<path d="M85.0879 35.9453H86.81V45.3458H88.7669V35.9453H90.489V45.3458H91.2718V48.3226H89.628V46.8342H85.0879V35.9453Z" fill="#FF6600"/>
<path d="M94.0893 46.9126H92.3672V35.9453H93.9327V42.9174L94.559 40.4889L95.9679 35.9453H97.8466V46.9126H96.281V39.1571L95.5766 41.8206L94.0893 46.9126Z" fill="#FF6600"/>
<path d="M99.0215 38.5309C99.0215 37.6692 99.2563 36.9641 99.726 36.4941C100.196 36.0241 100.822 35.7891 101.683 35.7891C102.544 35.7891 103.17 36.0241 103.64 36.4941C104.109 36.9641 104.344 37.6692 104.344 38.5309V44.2495C104.344 45.1112 104.109 45.8163 103.64 46.2863C103.17 46.7563 102.544 46.9913 101.683 46.9913C100.822 46.9913 100.196 46.7563 99.726 46.2863C99.2563 45.8163 99.0215 45.1112 99.0215 44.2495V38.5309ZM100.744 44.3279C100.744 44.7195 100.822 45.0329 100.978 45.1896C101.135 45.3462 101.37 45.4246 101.605 45.4246C101.839 45.4246 102.074 45.3462 102.231 45.1896C102.387 45.0329 102.466 44.7195 102.466 44.3279V38.3742C102.466 37.9825 102.387 37.6692 102.231 37.5125C102.074 37.3558 101.839 37.2775 101.605 37.2775C101.37 37.2775 101.135 37.3558 100.978 37.5125C100.822 37.6692 100.744 37.9825 100.744 38.3742V44.3279Z" fill="#FF6600"/>
<path d="M105.049 45.3458C105.284 45.3458 105.44 45.3458 105.518 45.3458C105.675 45.3458 105.753 45.2675 105.832 45.1891C105.91 45.1108 105.988 45.0325 105.988 44.8758C105.988 44.7191 106.066 44.4841 106.066 44.2491L106.38 35.9453H111.233V46.9126H109.511V37.5121H108.023L107.867 44.1708C107.867 45.1891 107.632 45.8942 107.241 46.2859C106.849 46.6776 106.223 46.9126 105.362 46.9126H105.127V45.3458H105.049Z" fill="#FF6600"/>
<path d="M112.562 38.5309C112.562 37.6692 112.797 36.9641 113.267 36.4941C113.737 36.0241 114.363 35.7891 115.224 35.7891C116.085 35.7891 116.711 36.0241 117.181 36.4941C117.651 36.9641 117.885 37.6692 117.885 38.5309V44.2495C117.885 45.1112 117.651 45.8163 117.181 46.2863C116.711 46.7563 116.085 46.9913 115.224 46.9913C114.363 46.9913 113.737 46.7563 113.267 46.2863C112.797 45.8163 112.562 45.1112 112.562 44.2495V38.5309ZM114.285 44.3279C114.285 44.7195 114.363 45.0329 114.519 45.1896C114.676 45.3462 114.911 45.4246 115.146 45.4246C115.38 45.4246 115.615 45.3462 115.772 45.1896C115.928 45.0329 116.007 44.7195 116.007 44.3279V38.3742C116.007 37.9825 115.928 37.6692 115.772 37.5125C115.615 37.3558 115.38 37.2775 115.146 37.2775C114.911 37.2775 114.676 37.3558 114.519 37.5125C114.363 37.6692 114.285 37.9825 114.285 38.3742V44.3279Z" fill="#FF6600"/>
<path d="M119.139 46.9126V35.9453H123.679V37.5121H120.861V46.9126H119.139Z" fill="#FF6600"/>
<path d="M126.73 46.9126H124.93V35.9453H126.495V42.9174L127.121 40.4889L128.53 35.9453H130.409V46.9126H128.844V39.1571L128.139 41.8206L126.73 46.9126Z" fill="#FF6600"/>
<path d="M131.506 46.9126C131.584 46.6776 131.662 46.5209 131.662 46.2859C131.662 46.0509 131.662 45.8158 131.662 45.5808V43.8574C131.662 43.309 131.741 42.7607 131.897 42.369C132.054 41.9773 132.367 41.664 132.758 41.5073C131.976 41.1156 131.662 40.4106 131.662 39.3138V38.4521C131.662 37.5904 131.897 36.9637 132.289 36.572C132.68 36.1803 133.306 35.9453 134.246 35.9453H136.829V46.9126H135.107V42.4473H134.48C134.089 42.4473 133.776 42.5257 133.619 42.7607C133.463 42.9957 133.385 43.309 133.385 43.8574V45.5808C133.385 45.8158 133.385 45.9725 133.385 46.1292C133.385 46.2859 133.385 46.3642 133.385 46.5209C133.385 46.5992 133.385 46.6776 133.306 46.7559C133.228 46.8342 133.228 46.9126 133.228 46.9909H131.506V46.9126ZM134.324 37.5121C134.011 37.5121 133.776 37.5904 133.619 37.7471C133.463 37.9038 133.385 38.2171 133.385 38.6088V39.7055C133.385 40.1755 133.463 40.4106 133.619 40.6456C133.776 40.8806 134.089 40.8806 134.402 40.8806H135.107V37.5121H134.324Z" fill="#FF6600"/>
<path d="M142.621 46.9126H140.82V35.9453H142.386V42.9174L143.012 40.4889L144.421 35.9453H146.3V46.9126H144.734V39.1571L144.03 41.8206L142.621 46.9126Z" fill="#FF6600"/>
<path d="M155.85 46.9126H154.128L153.814 44.9541H151.701L151.388 46.9126H149.822L151.544 35.9453H154.049L155.85 46.9126ZM151.936 43.3874H153.58L152.719 37.8254L151.936 43.3874Z" fill="#FF6600"/>
<path d="M158.511 46.9126H156.789V35.9453H158.511V40.6456H160.468V35.9453H162.19V46.9126H160.468V42.2123H158.511V46.9126Z" fill="#FF6600"/>
<path d="M169.236 46.9126H167.514L167.201 44.9541H165.088L164.775 46.9126H163.209L164.931 35.9453H167.436L169.236 46.9126ZM165.244 43.3874H166.888L166.027 37.8254L165.244 43.3874Z" fill="#FF6600"/>
<path d="M169.705 45.3458C169.94 45.3458 170.096 45.3458 170.175 45.3458C170.331 45.3458 170.41 45.2675 170.488 45.1891C170.566 45.1108 170.644 45.0325 170.644 44.8758C170.644 44.7191 170.723 44.4841 170.723 44.2491L171.036 35.9453H175.889V46.9126H174.167V37.5121H172.68L172.523 44.1708C172.523 45.1891 172.288 45.8942 171.897 46.2859C171.505 46.6776 170.879 46.9126 170.018 46.9126H169.783V45.3458H169.705Z" fill="#FF6600"/>
<path d="M179.099 46.9126H177.299V35.9453H178.864V42.9174L179.491 40.4889L180.9 35.9453H182.778V46.9126H181.213V39.1571L180.508 41.8206L179.099 46.9126Z" fill="#FF6600"/>
<path d="M183.717 35.9453H189.04V37.5121H187.239V46.9126H185.517V37.5121H183.717V35.9453Z" fill="#FF6600"/>
<path d="M191.701 46.9126H189.9V35.9453H191.466V42.9174L192.092 40.4889L193.501 35.9453H195.38V46.9126H193.814V39.1571L193.11 41.8206L191.701 46.9126Z" fill="#FF6600"/>
<path d="M199.059 42.5257L198.511 43.5441V46.9126H196.789V35.9453H198.511V40.7239L200.781 35.9453H202.503L200.077 40.8022L202.503 46.9126H200.703L199.059 42.5257Z" fill="#FF6600"/>
<path d="M209 46.9126H207.278L206.965 44.9541H204.851L204.538 46.9126H202.973L204.695 35.9453H207.2L209 46.9126ZM205.086 43.3874H206.73L205.869 37.8254L205.086 43.3874Z" fill="#FF6600"/>
<path d="M41.4869 55.9999H0L41.4869 14.481V55.9999Z" fill="url(#paint0_linear_3892:11700)"/>
<path d="M17.1436 38.6875L10.5684 44.8762L41.4878 44.7978V38.7658L17.1436 38.6875Z" fill="url(#paint1_linear_3892:11700)"/>
<path d="M20.6652 25.4482C25.988 25.4482 30.2933 29.7568 30.2933 35.0837C30.2933 40.4107 25.988 44.7193 20.6652 44.7193C15.3423 44.7193 11.0371 40.4107 11.0371 35.0837C11.0371 29.7568 15.3423 25.4482 20.6652 25.4482ZM20.6652 14.481C9.2367 14.481 0 23.7248 0 35.1621C0 46.5994 9.2367 55.7648 20.5869 55.7648C31.9371 55.7648 41.1738 46.521 41.1738 35.1621C41.1738 23.8031 32.0154 14.481 20.6652 14.481Z" fill="url(#paint2_linear_3892:11700)"/>
<path d="M38.8256 44.7978C32.8765 44.7978 27.0057 44.7978 21.0566 44.7978C21.996 44.7195 23.405 44.4845 24.9705 43.7011C26.1447 43.0744 26.9274 42.3694 27.4754 41.821C31.7023 41.821 35.851 41.821 40.078 41.7427C39.9997 41.9777 39.9214 42.291 39.7649 42.5261C39.53 43.3878 39.2169 44.0928 38.8256 44.7978Z" fill="url(#paint3_linear_3892:11700)"/>
<path d="M55.186 34.6921V0.771973L13.7773 41.8992H47.5931L55.186 34.6921Z" fill="url(#paint4_linear_3892:11700)"/>
<path d="M55.1847 34.6924L47.5918 41.8994V34.6924H55.1847Z" fill="url(#paint5_linear_3892:11700)"/>
</g>
<defs>
<linearGradient id="paint0_linear_3892:11700" x1="15.1426" y1="29.6589" x2="37.6963" y2="52.1952" gradientUnits="userSpaceOnUse">
<stop stop-color="#33CC33"/>
<stop offset="1" stop-color="#339C4C"/>
</linearGradient>
<linearGradient id="paint1_linear_3892:11700" x1="9.17432" y1="41.8058" x2="40.0935" y2="41.8058" gradientUnits="userSpaceOnUse">
<stop stop-color="#33A933"/>
<stop offset="1" stop-color="#336B4C"/>
</linearGradient>
<linearGradient id="paint2_linear_3892:11700" x1="0" y1="14.481" x2="35.3555" y2="66.862" gradientUnits="userSpaceOnUse">
<stop stop-color="#FFB300"/>
<stop offset="0.7025" stop-color="#FF6600"/>
</linearGradient>
<linearGradient id="paint3_linear_3892:11700" x1="15.8918" y1="43.2876" x2="34.9467" y2="43.2876" gradientUnits="userSpaceOnUse">
<stop offset="0.00537634" stop-color="#FF6600"/>
<stop offset="0.7025" stop-color="#CC5200"/>
</linearGradient>
<linearGradient id="paint4_linear_3892:11700" x1="36.2509" y1="23.1156" x2="48.0986" y2="34.954" gradientUnits="userSpaceOnUse">
<stop stop-color="#33CC33"/>
<stop offset="1" stop-color="#339C4C"/>
</linearGradient>
<linearGradient id="paint5_linear_3892:11700" x1="49.2477" y1="38.2882" x2="68.7445" y2="38.2882" gradientUnits="userSpaceOnUse">
<stop stop-color="#33CC33"/>
<stop offset="1" stop-color="#339C4C"/>
</linearGradient>
<clipPath id="clip0_3892:11700">
<rect width="209" height="56.0001" fill="white"/>
</clipPath>
</defs>
</svg>
