<svg width="48" height="45" viewBox="0 0 48 45" fill="none" xmlns="http://www.w3.org/2000/svg">
<path d="M46.8071 16.0204H46.1696C45.5484 12.869 42.3626 7.32028 40.9522 4.97012C41.6135 4.5153 42.0482 3.75368 42.0482 2.89225C42.0482 1.5024 40.9173 0.371582 39.5275 0.371582C38.1376 0.371582 37.0069 1.50231 37.0069 2.89225C37.0069 3.75368 37.4416 4.5153 38.1029 4.97012C36.6927 7.32028 33.5068 12.869 32.8857 16.0204H32.2482C31.7229 16.0204 31.2969 16.4463 31.2969 16.9717C31.2969 21.5102 34.9892 25.2025 39.5277 25.2025C44.0662 25.2025 47.7585 21.5102 47.7585 16.9717C47.7585 16.4463 47.3325 16.0204 46.8071 16.0204ZM39.5276 2.27437C39.8682 2.27437 40.1455 2.5516 40.1455 2.89225C40.1455 3.2329 39.8682 3.51003 39.5276 3.51003C39.1869 3.51003 38.9098 3.2329 38.9098 2.89225C38.9098 2.5516 39.1868 2.27437 39.5276 2.27437ZM39.5261 6.29468C41.136 9.01207 43.6222 13.5385 44.2337 16.0204H34.8245C35.4018 13.6966 37.6387 9.46671 39.5261 6.29468ZM39.5276 23.2998C36.3616 23.2998 33.7311 20.9627 33.2708 17.9231H45.7844C45.3241 20.9627 42.6937 23.2998 39.5276 23.2998Z" fill="url(#paint0_linear_3892:19955)"/>
<path d="M32.3473 38.7996H29.8322V36.3835C29.8322 35.8581 29.4062 35.4322 28.8808 35.4322H26.4647V8.85683C27.087 8.24175 27.4878 7.40308 27.5343 6.47244L31.557 5.60681C32.0707 5.49628 32.3975 4.99024 32.287 4.47656C32.1764 3.96287 31.6703 3.6364 31.1567 3.74665L27.1246 4.61442C26.5197 3.46598 25.3145 2.68066 23.9288 2.68066C22.0097 2.68066 20.4363 4.18581 20.3256 6.0775L10.2664 8.24212C9.8075 7.61445 9.06621 7.2057 8.2309 7.2057C6.84105 7.2057 5.71024 8.33643 5.71024 9.72637C5.71024 10.5878 6.14492 11.3495 6.80626 11.8042C5.39589 14.1544 2.21014 19.7031 1.589 22.8545H0.951535C0.42591 22.8545 0 23.2804 0 23.8058C0 28.3443 3.69234 32.0367 8.23081 32.0367C12.7693 32.0367 16.4616 28.3443 16.4616 23.8058C16.4616 23.2804 16.0357 22.8545 15.5103 22.8545H14.8728C14.2517 19.703 11.0658 14.1544 9.65555 11.8042C10.2221 11.4146 10.6219 10.7998 10.725 10.0899L20.719 7.93934C20.8948 8.28018 21.1227 8.58986 21.3929 8.85701V35.4325H18.9769C18.4514 35.4325 18.0255 35.8584 18.0255 36.3838V38.7999H15.5104C14.9849 38.7999 14.559 39.2258 14.559 39.7513V43.3165C14.559 43.8419 14.9849 44.2678 15.5104 44.2678H32.3473C32.8727 44.2678 33.2987 43.8419 33.2987 43.3165V39.751C33.2987 39.2255 32.8727 38.7996 32.3473 38.7996ZM8.23081 9.10831C8.57146 9.10831 8.84869 9.38553 8.84869 9.72618C8.84869 10.0668 8.57146 10.344 8.23081 10.344C7.89016 10.344 7.61293 10.0668 7.61293 9.72618C7.61293 9.38553 7.89016 9.10831 8.23081 9.10831ZM8.23081 30.1338C5.06475 30.1338 2.43429 27.7967 1.97406 24.757H14.4876C14.0273 27.7967 11.3969 30.1338 8.23081 30.1338ZM12.9369 22.8543H3.5277C4.1051 20.5305 6.34201 16.3006 8.22941 13.1286C9.83921 15.8459 12.3254 20.3723 12.9369 22.8543ZM23.9289 4.58317C24.8703 4.58317 25.6361 5.34899 25.6361 6.29045C25.6361 7.23191 24.8702 7.99773 23.9289 7.99773C22.9875 7.99773 22.2216 7.23191 22.2216 6.29045C22.2216 5.34899 22.9874 4.58317 23.9289 4.58317ZM24.5621 9.8439V35.4323H23.2956V9.84381C23.5014 9.88047 23.7127 9.90061 23.9289 9.90061C24.1452 9.90061 24.3564 9.88037 24.5621 9.8439ZM19.9281 37.3349H27.9295V38.7996H19.9281V37.3349ZM31.396 42.365H16.4617V40.7023H31.396V42.365Z" fill="url(#paint1_linear_3892:19955)"/>
<path d="M35.951 3.747C35.8404 3.23332 35.3343 2.90656 34.8206 3.0171L34.1274 3.16625C33.6138 3.27678 33.2869 3.78282 33.3975 4.29651C33.4936 4.74275 33.888 5.04786 34.3267 5.04786C34.393 5.04786 34.4604 5.04096 34.5278 5.02641L35.2211 4.87726C35.7346 4.76672 36.0615 4.26069 35.951 3.747Z" fill="url(#paint2_linear_3892:19955)"/>
<defs>
<linearGradient id="paint0_linear_3892:19955" x1="31.2969" y1="0.371582" x2="54.2236" y2="22.9503" gradientUnits="userSpaceOnUse">
<stop stop-color="#FFB300"/>
<stop offset="0.7025" stop-color="#FF6600"/>
</linearGradient>
<linearGradient id="paint1_linear_3892:19955" x1="0" y1="2.68066" x2="37.8317" y2="47.6794" gradientUnits="userSpaceOnUse">
<stop stop-color="#FFB300"/>
<stop offset="0.7025" stop-color="#FF6600"/>
</linearGradient>
<linearGradient id="paint2_linear_3892:19955" x1="33.376" y1="2.99561" x2="34.9477" y2="5.94954" gradientUnits="userSpaceOnUse">
<stop stop-color="#FFB300"/>
<stop offset="0.7025" stop-color="#FF6600"/>
</linearGradient>
</defs>
</svg>
