<svg width="48" height="48" viewBox="0 0 48 48" fill="none" xmlns="http://www.w3.org/2000/svg">
<path d="M23.5661 40.5741C23.3918 40.3997 23.1499 40.2993 22.9033 40.2993C22.6568 40.2993 22.4149 40.3996 22.2405 40.5741C22.0661 40.7484 21.9658 40.9903 21.9658 41.2368C21.9658 41.4844 22.0661 41.7252 22.2405 41.8996C22.4149 42.0749 22.6568 42.1743 22.9033 42.1743C23.1499 42.1743 23.3918 42.0749 23.5661 41.8996C23.7405 41.7252 23.8408 41.4835 23.8408 41.2368C23.8408 40.9903 23.7404 40.7484 23.5661 40.5741Z" fill="url(#paint0_linear_3892:19621)"/>
<path d="M28.0295 31.9256V25.0273C28.0295 24.7158 27.8748 24.4247 27.6167 24.2504C27.3586 24.0761 27.0308 24.0414 26.7417 24.1577L10.5874 30.6636H5.38433C2.41546 30.6636 0 33.0791 0 36.0481C0 39.0172 2.41546 41.4326 5.38452 41.4326H6.00411V47.0625C6.00411 47.5802 6.42383 48 6.94161 48H10.7688C11.2866 48 11.7063 47.5802 11.7063 47.0625V41.8849L26.7422 47.9323C26.855 47.9777 26.9738 48.0001 27.0919 48.0001C27.2764 48.0001 27.4596 47.9456 27.6169 47.8394C27.8749 47.6651 28.0295 47.3739 28.0295 47.0626V40.1644C29.9096 39.7366 31.3175 38.0527 31.3175 36.045C31.3175 34.0374 29.9096 32.3534 28.0295 31.9256ZM9.83126 46.125H7.87911V41.4326H9.83135V46.125H9.83126ZM9.83145 39.5576H5.38452C3.44934 39.5576 1.875 37.9832 1.875 36.0481C1.875 34.1129 3.44934 32.5386 5.38452 32.5386H9.83182L9.83145 39.5576ZM26.1546 45.6749H26.1545L11.7068 39.864V32.2341L21.9656 28.1026V37.4063C21.9656 37.924 22.3853 38.3438 22.9031 38.3438C23.4208 38.3438 23.8406 37.924 23.8406 37.4063V27.3474L26.1546 26.4154V45.6749ZM28.0295 38.1998V33.8901C28.8602 34.2529 29.4425 35.082 29.4425 36.0449C29.4425 37.0078 28.8603 37.837 28.0295 38.1998Z" fill="url(#paint1_linear_3892:19621)"/>
<path d="M40.261 35.1353H34.9531C34.4353 35.1353 34.0156 35.5551 34.0156 36.0728C34.0156 36.5904 34.4353 37.0102 34.9531 37.0102H40.261C40.7788 37.0102 41.1985 36.5904 41.1985 36.0728C41.1985 35.5551 40.7788 35.1353 40.261 35.1353Z" fill="url(#paint2_linear_3892:19621)"/>
<path d="M35.908 28.2652C35.5419 27.8992 34.9483 27.8992 34.5821 28.2652L32.7511 30.0962C32.385 30.4623 32.385 31.0559 32.7511 31.4221C32.9343 31.6051 33.1742 31.6967 33.4141 31.6967C33.654 31.6967 33.894 31.6051 34.077 31.4221L35.908 29.5911C36.2741 29.225 36.2741 28.6314 35.908 28.2652Z" fill="url(#paint3_linear_3892:19621)"/>
<path d="M35.977 42.4666L34.0848 40.5743C33.7188 40.2083 33.1251 40.2083 32.7589 40.5743C32.3929 40.9404 32.3929 41.534 32.7589 41.9002L34.6512 43.7925C34.8343 43.9755 35.0742 44.067 35.3141 44.067C35.554 44.067 35.794 43.9755 35.977 43.7925C36.3431 43.4264 36.3431 42.8327 35.977 42.4666Z" fill="url(#paint4_linear_3892:19621)"/>
<path d="M44.2499 0H26.8124C24.7447 0 23.0625 1.68225 23.0625 3.74999V4.12499H7.31249C6.07181 4.12499 5.0625 5.13439 5.0625 6.37498V21.1874C5.0625 22.428 6.07181 23.4374 7.31249 23.4374H8.28121V26.3125C8.28121 26.6917 8.50968 27.0335 8.85993 27.1786C8.9759 27.2266 9.09768 27.25 9.21852 27.25C9.46246 27.25 9.70227 27.1547 9.88161 26.9754L13.4195 23.4374H32.0418C33.2825 23.4374 34.2918 22.428 34.2918 21.1874V18.375H44.2499C46.3176 18.375 47.9999 16.6927 47.9999 14.625V3.74999C47.9998 1.68225 46.3176 0 44.2499 0ZM32.4168 21.1874C32.4168 21.3943 32.2486 21.5624 32.0418 21.5624H13.0312C12.7826 21.5624 12.5441 21.6613 12.3683 21.837L10.1563 24.0492V22.4999C10.1563 21.9823 9.73658 21.5624 9.2188 21.5624H7.31249C7.10568 21.5624 6.9375 21.3943 6.9375 21.1874V6.37498C6.9375 6.16817 7.10568 5.99998 7.31249 5.99998H23.0625V14.625C23.0625 16.6927 24.7447 18.375 26.8124 18.375H32.4168V21.1874ZM46.1249 14.625C46.1249 15.6588 45.2838 16.5 44.2499 16.5H26.8124C25.7786 16.5 24.9375 15.6588 24.9375 14.625V3.74999C24.9375 2.71612 25.7786 1.875 26.8124 1.875H44.2499C45.2838 1.875 46.1249 2.71612 46.1249 3.74999V14.625Z" fill="url(#paint5_linear_3892:19621)"/>
<path d="M39.2971 8.37549L32.8809 4.67106C32.5908 4.50353 32.2334 4.50353 31.9434 4.67106C31.6533 4.8385 31.4746 5.14806 31.4746 5.48293V12.8917C31.4746 13.2266 31.6533 13.5361 31.9434 13.7036C32.0884 13.7874 32.2502 13.8292 32.4121 13.8292C32.574 13.8292 32.7358 13.7874 32.8809 13.7036L39.2971 9.99914C39.5872 9.8317 39.7658 9.52214 39.7658 9.18727C39.7658 8.85239 39.5872 8.54292 39.2971 8.37549ZM33.3496 11.2679V7.10677L36.9533 9.18736L33.3496 11.2679Z" fill="url(#paint6_linear_3892:19621)"/>
<path d="M20.1103 9.84375H10.7353C10.2176 9.84375 9.79785 10.2636 9.79785 10.7812C9.79785 11.2989 10.2176 11.7187 10.7353 11.7187H20.1103C20.6281 11.7187 21.0478 11.2989 21.0478 10.7812C21.0478 10.2636 20.6281 9.84375 20.1103 9.84375Z" fill="url(#paint7_linear_3892:19621)"/>
<path d="M20.7732 15.3684C20.5988 15.194 20.3569 15.0938 20.1103 15.0938C19.8638 15.0938 19.6219 15.194 19.4475 15.3684C19.2732 15.5428 19.1729 15.7847 19.1729 16.0312C19.1729 16.2778 19.2732 16.5197 19.4475 16.694C19.6219 16.8683 19.8638 16.9687 20.1103 16.9687C20.3578 16.9687 20.5988 16.8684 20.7732 16.694C20.9475 16.5197 21.0478 16.2778 21.0478 16.0312C21.0478 15.7847 20.9475 15.5428 20.7732 15.3684Z" fill="url(#paint8_linear_3892:19621)"/>
<path d="M16.5937 15.0938H10.7353C10.2176 15.0938 9.79785 15.5136 9.79785 16.0312C9.79785 16.5489 10.2176 16.9687 10.7353 16.9687H16.5937C17.1115 16.9687 17.5312 16.5489 17.5312 16.0312C17.5312 15.5136 17.1115 15.0938 16.5937 15.0938Z" fill="url(#paint9_linear_3892:19621)"/>
<defs>
<linearGradient id="paint0_linear_3892:19621" x1="21.9658" y1="40.2993" x2="23.57" y2="42.6823" gradientUnits="userSpaceOnUse">
<stop stop-color="#FFB300"/>
<stop offset="0.7025" stop-color="#FF6600"/>
</linearGradient>
<linearGradient id="paint1_linear_3892:19621" x1="0" y1="24.0898" x2="17.953" y2="59.0214" gradientUnits="userSpaceOnUse">
<stop stop-color="#FFB300"/>
<stop offset="0.7025" stop-color="#FF6600"/>
</linearGradient>
<linearGradient id="paint2_linear_3892:19621" x1="34.0156" y1="35.1353" x2="34.6059" y2="38.4944" gradientUnits="userSpaceOnUse">
<stop stop-color="#FFB300"/>
<stop offset="0.7025" stop-color="#FF6600"/>
</linearGradient>
<linearGradient id="paint3_linear_3892:19621" x1="32.4766" y1="27.9907" x2="35.6471" y2="32.7007" gradientUnits="userSpaceOnUse">
<stop stop-color="#FFB300"/>
<stop offset="0.7025" stop-color="#FF6600"/>
</linearGradient>
<linearGradient id="paint4_linear_3892:19621" x1="32.4844" y1="40.2998" x2="35.7074" y2="45.0876" gradientUnits="userSpaceOnUse">
<stop stop-color="#FFB300"/>
<stop offset="0.7025" stop-color="#FF6600"/>
</linearGradient>
<linearGradient id="paint5_linear_3892:19621" x1="5.0625" y1="0" x2="23.2445" y2="42.5586" gradientUnits="userSpaceOnUse">
<stop stop-color="#FFB300"/>
<stop offset="0.7025" stop-color="#FF6600"/>
</linearGradient>
<linearGradient id="paint6_linear_3892:19621" x1="31.4746" y1="4.54541" x2="39.7159" y2="15.4792" gradientUnits="userSpaceOnUse">
<stop stop-color="#FFB300"/>
<stop offset="0.7025" stop-color="#FF6600"/>
</linearGradient>
<linearGradient id="paint7_linear_3892:19621" x1="9.79785" y1="9.84375" x2="10.1815" y2="13.2635" gradientUnits="userSpaceOnUse">
<stop stop-color="#FFB300"/>
<stop offset="0.7025" stop-color="#FF6600"/>
</linearGradient>
<linearGradient id="paint8_linear_3892:19621" x1="19.1729" y1="15.0938" x2="20.777" y2="17.4767" gradientUnits="userSpaceOnUse">
<stop stop-color="#FFB300"/>
<stop offset="0.7025" stop-color="#FF6600"/>
</linearGradient>
<linearGradient id="paint9_linear_3892:19621" x1="9.79785" y1="15.0938" x2="10.3484" y2="18.4667" gradientUnits="userSpaceOnUse">
<stop stop-color="#FFB300"/>
<stop offset="0.7025" stop-color="#FF6600"/>
</linearGradient>
</defs>
</svg>
