<svg width="48" height="48" viewBox="0 0 48 48" fill="none" xmlns="http://www.w3.org/2000/svg">
<mask id="path-1-outside-1_103787" maskUnits="userSpaceOnUse" x="0" y="3" width="48" height="43" fill="black">
<rect fill="white" y="3" width="48" height="43"/>
<path d="M40.005 17.7493C39.1389 17.4161 38.2149 17.1138 37.2433 16.8425C37.4941 15.8655 37.6943 14.914 37.839 13.9973C38.5915 9.2257 37.7599 5.87852 35.4976 4.57232C34.8399 4.1926 34.0841 4 33.2512 4C30.6203 4 27.2961 5.95388 23.9424 9.2535C23.2098 8.53399 22.4739 7.87311 21.7403 7.27985C17.9843 4.24231 14.6695 3.28881 12.4074 4.59502C10.9535 5.43441 10.0693 7.14861 9.85053 9.55208C9.81373 9.95578 10.1112 10.3128 10.5149 10.3495C10.9199 10.3869 11.2755 10.0888 11.3123 9.68508C11.4335 8.3547 11.849 6.61231 13.1412 5.86629C14.8157 4.89928 17.6136 5.83057 20.8172 8.42115C21.5162 8.98642 22.218 9.61677 22.9175 10.3034C21.5109 11.8 20.1111 13.5226 18.767 15.4263C16.4026 15.6415 14.1505 16.0026 12.0837 16.4978C11.7218 15.0909 11.4732 13.7484 11.3506 12.5022C11.311 12.0988 10.9534 11.8041 10.5483 11.8437C10.1449 11.8833 9.85004 12.2426 9.88977 12.646C10.0195 13.9646 10.282 15.3829 10.6646 16.8672C9.72546 17.132 8.83156 17.4262 7.99178 17.7492C3.48294 19.4833 1 21.8771 1 24.4894C1 27.1017 3.48294 29.4955 7.99158 31.2296C8.85769 31.5627 9.78173 31.865 10.7533 32.1363C10.5025 33.1134 10.3023 34.0648 10.1576 34.9815C9.40515 39.7532 10.2367 43.1003 12.4991 44.4065C13.1567 44.7863 13.9125 44.9789 14.7455 44.9789C17.346 44.9789 20.6243 43.0689 23.9387 39.8379C24.6487 40.5314 25.3617 41.1698 26.0725 41.7445C28.7306 43.8942 31.1672 45.0001 33.1666 45C33.9924 44.9999 34.7441 44.8111 35.4054 44.4293C37.6677 43.1231 38.4993 39.776 37.7468 35.0044C37.6022 34.0877 37.402 33.1364 37.1512 32.1594C38.6621 31.7433 40.0519 31.2532 41.2828 30.6953C41.6521 30.528 41.8157 30.0931 41.6484 29.7238C41.481 29.3546 41.046 29.1909 40.6769 29.3583C39.5111 29.8866 38.1933 30.3517 36.7582 30.7472C36.1648 28.7644 35.3746 26.6944 34.4117 24.6005C35.4179 22.4355 36.2403 20.2941 36.8528 18.2455C42.3004 19.7709 45.5286 22.1799 45.5286 24.4894C45.5286 25.9816 44.2274 27.2127 43.1358 27.9826C42.8046 28.2163 42.7255 28.6742 42.9591 29.0055C43.1928 29.3369 43.6507 29.4159 43.982 29.1823C45.9542 27.7911 46.9966 26.1683 46.9966 24.4894C46.9966 21.8771 44.5137 19.4833 40.005 17.7493ZM33.2511 5.46807C33.823 5.46807 34.3319 5.59442 34.7635 5.84368C36.4381 6.81059 37.0306 9.69917 36.3887 13.7687C36.2512 14.6404 36.0609 15.5458 35.8222 16.4765C33.7467 15.9845 31.4868 15.6271 29.1153 15.4162C27.7847 13.533 26.3882 11.8109 24.9682 10.3024C25.2281 10.0462 25.4881 9.79763 25.7476 9.55844C28.6104 6.92069 31.2751 5.46807 33.2511 5.46807ZM23.9445 11.3549C25.052 12.5353 26.1464 13.8521 27.2056 15.2794C26.1517 15.222 25.0808 15.1922 23.9983 15.1922C22.8796 15.1922 21.773 15.2237 20.6851 15.2849C21.7428 13.86 22.8387 12.5379 23.9445 11.3549ZM23.9393 37.7449C22.7925 36.5294 21.6594 35.167 20.5643 33.6868C21.6911 33.7528 22.8381 33.7866 23.9983 33.7866C25.1158 33.7866 26.223 33.754 27.3131 33.6918C26.219 35.166 25.084 36.5309 23.9393 37.7449ZM23.9983 32.3186C22.4212 32.3186 20.9079 32.2576 19.4658 32.1441C18.6557 30.9622 17.8721 29.719 17.1261 28.4267C16.3918 27.155 15.7164 25.8718 15.1045 24.5948C15.7397 23.2579 16.446 21.9122 17.218 20.5748C17.9657 19.2799 18.7594 18.0242 19.5841 16.8259C20.9908 16.7184 22.4642 16.6602 23.9983 16.6602C25.493 16.6602 26.9299 16.7154 28.3038 16.8177C29.1292 18.0182 29.9274 19.2824 30.6867 20.5975C31.4549 21.9282 32.158 23.2672 32.7908 24.5976C32.1822 25.8641 31.5096 27.1379 30.7787 28.4039C30.0325 29.6964 29.2403 30.9499 28.4172 32.1462C26.977 32.2595 25.4979 32.3186 23.9983 32.3186ZM17.5769 31.9609C15.771 31.7523 14.0946 31.459 12.5657 31.0988C13.03 29.5536 13.6185 27.9514 14.3203 26.3239C14.7997 27.272 15.3115 28.2199 15.8548 29.1607C16.4094 30.1216 16.985 31.0565 17.5769 31.9609ZM17.6933 17.0043C17.0953 17.9162 16.5113 18.8629 15.9467 19.8408C15.3661 20.8465 14.8214 21.8578 14.3146 22.8676C13.5765 21.1728 12.9584 19.5034 12.476 17.9011C14.0617 17.5234 15.8075 17.2177 17.6933 17.0043ZM2.46798 24.4894C2.46798 22.1923 5.66171 19.7967 11.0563 18.2701C11.6665 20.3059 12.4853 22.4411 13.4839 24.5968C12.5235 26.6874 11.7355 28.7538 11.1436 30.7334C5.69616 29.208 2.46798 26.799 2.46798 24.4894ZM14.7455 43.5108C14.1736 43.5108 13.6647 43.3844 13.2331 43.1352C11.5585 42.1683 10.966 39.2797 11.6079 35.2102C11.7454 34.3385 11.9357 33.433 12.1744 32.5023C14.1824 32.9784 16.3631 33.3284 18.6505 33.5416C20.0158 35.48 21.4512 37.249 22.9105 38.7918C22.6899 39.0072 22.4693 39.2174 22.249 39.4204C19.3862 42.0583 16.7215 43.5108 14.7455 43.5108ZM36.2968 35.233C36.9387 39.3025 36.3462 42.1911 34.6716 43.158C32.9968 44.1248 30.1992 43.1936 26.9956 40.6031C26.321 40.0576 25.6437 39.4515 24.9686 38.7927C26.4132 37.2682 27.8519 35.5041 29.2319 33.5492C31.5251 33.3387 33.7163 32.9917 35.7291 32.5207C35.9684 33.453 36.1591 34.3599 36.2968 35.233ZM35.3348 31.1077C33.7627 31.473 32.0748 31.7604 30.3105 31.9635C30.906 31.055 31.4875 30.1121 32.0499 29.138C32.5898 28.2028 33.0983 27.2628 33.5745 26.3237C34.2786 27.9541 34.8691 29.5594 35.3348 31.1077ZM33.5813 22.8728C33.0771 21.8688 32.5353 20.8634 31.958 19.8635C31.3886 18.8773 30.7974 17.9182 30.1889 16.9914C32.083 17.2014 33.8369 17.5045 35.4309 17.8801C34.946 19.4942 34.3248 21.1706 33.5813 22.8728Z"/>
</mask>
<path d="M40.005 17.7493C39.1389 17.4161 38.2149 17.1138 37.2433 16.8425C37.4941 15.8655 37.6943 14.914 37.839 13.9973C38.5915 9.2257 37.7599 5.87852 35.4976 4.57232C34.8399 4.1926 34.0841 4 33.2512 4C30.6203 4 27.2961 5.95388 23.9424 9.2535C23.2098 8.53399 22.4739 7.87311 21.7403 7.27985C17.9843 4.24231 14.6695 3.28881 12.4074 4.59502C10.9535 5.43441 10.0693 7.14861 9.85053 9.55208C9.81373 9.95578 10.1112 10.3128 10.5149 10.3495C10.9199 10.3869 11.2755 10.0888 11.3123 9.68508C11.4335 8.3547 11.849 6.61231 13.1412 5.86629C14.8157 4.89928 17.6136 5.83057 20.8172 8.42115C21.5162 8.98642 22.218 9.61677 22.9175 10.3034C21.5109 11.8 20.1111 13.5226 18.767 15.4263C16.4026 15.6415 14.1505 16.0026 12.0837 16.4978C11.7218 15.0909 11.4732 13.7484 11.3506 12.5022C11.311 12.0988 10.9534 11.8041 10.5483 11.8437C10.1449 11.8833 9.85004 12.2426 9.88977 12.646C10.0195 13.9646 10.282 15.3829 10.6646 16.8672C9.72546 17.132 8.83156 17.4262 7.99178 17.7492C3.48294 19.4833 1 21.8771 1 24.4894C1 27.1017 3.48294 29.4955 7.99158 31.2296C8.85769 31.5627 9.78173 31.865 10.7533 32.1363C10.5025 33.1134 10.3023 34.0648 10.1576 34.9815C9.40515 39.7532 10.2367 43.1003 12.4991 44.4065C13.1567 44.7863 13.9125 44.9789 14.7455 44.9789C17.346 44.9789 20.6243 43.0689 23.9387 39.8379C24.6487 40.5314 25.3617 41.1698 26.0725 41.7445C28.7306 43.8942 31.1672 45.0001 33.1666 45C33.9924 44.9999 34.7441 44.8111 35.4054 44.4293C37.6677 43.1231 38.4993 39.776 37.7468 35.0044C37.6022 34.0877 37.402 33.1364 37.1512 32.1594C38.6621 31.7433 40.0519 31.2532 41.2828 30.6953C41.6521 30.528 41.8157 30.0931 41.6484 29.7238C41.481 29.3546 41.046 29.1909 40.6769 29.3583C39.5111 29.8866 38.1933 30.3517 36.7582 30.7472C36.1648 28.7644 35.3746 26.6944 34.4117 24.6005C35.4179 22.4355 36.2403 20.2941 36.8528 18.2455C42.3004 19.7709 45.5286 22.1799 45.5286 24.4894C45.5286 25.9816 44.2274 27.2127 43.1358 27.9826C42.8046 28.2163 42.7255 28.6742 42.9591 29.0055C43.1928 29.3369 43.6507 29.4159 43.982 29.1823C45.9542 27.7911 46.9966 26.1683 46.9966 24.4894C46.9966 21.8771 44.5137 19.4833 40.005 17.7493ZM33.2511 5.46807C33.823 5.46807 34.3319 5.59442 34.7635 5.84368C36.4381 6.81059 37.0306 9.69917 36.3887 13.7687C36.2512 14.6404 36.0609 15.5458 35.8222 16.4765C33.7467 15.9845 31.4868 15.6271 29.1153 15.4162C27.7847 13.533 26.3882 11.8109 24.9682 10.3024C25.2281 10.0462 25.4881 9.79763 25.7476 9.55844C28.6104 6.92069 31.2751 5.46807 33.2511 5.46807ZM23.9445 11.3549C25.052 12.5353 26.1464 13.8521 27.2056 15.2794C26.1517 15.222 25.0808 15.1922 23.9983 15.1922C22.8796 15.1922 21.773 15.2237 20.6851 15.2849C21.7428 13.86 22.8387 12.5379 23.9445 11.3549ZM23.9393 37.7449C22.7925 36.5294 21.6594 35.167 20.5643 33.6868C21.6911 33.7528 22.8381 33.7866 23.9983 33.7866C25.1158 33.7866 26.223 33.754 27.3131 33.6918C26.219 35.166 25.084 36.5309 23.9393 37.7449ZM23.9983 32.3186C22.4212 32.3186 20.9079 32.2576 19.4658 32.1441C18.6557 30.9622 17.8721 29.719 17.1261 28.4267C16.3918 27.155 15.7164 25.8718 15.1045 24.5948C15.7397 23.2579 16.446 21.9122 17.218 20.5748C17.9657 19.2799 18.7594 18.0242 19.5841 16.8259C20.9908 16.7184 22.4642 16.6602 23.9983 16.6602C25.493 16.6602 26.9299 16.7154 28.3038 16.8177C29.1292 18.0182 29.9274 19.2824 30.6867 20.5975C31.4549 21.9282 32.158 23.2672 32.7908 24.5976C32.1822 25.8641 31.5096 27.1379 30.7787 28.4039C30.0325 29.6964 29.2403 30.9499 28.4172 32.1462C26.977 32.2595 25.4979 32.3186 23.9983 32.3186ZM17.5769 31.9609C15.771 31.7523 14.0946 31.459 12.5657 31.0988C13.03 29.5536 13.6185 27.9514 14.3203 26.3239C14.7997 27.272 15.3115 28.2199 15.8548 29.1607C16.4094 30.1216 16.985 31.0565 17.5769 31.9609ZM17.6933 17.0043C17.0953 17.9162 16.5113 18.8629 15.9467 19.8408C15.3661 20.8465 14.8214 21.8578 14.3146 22.8676C13.5765 21.1728 12.9584 19.5034 12.476 17.9011C14.0617 17.5234 15.8075 17.2177 17.6933 17.0043ZM2.46798 24.4894C2.46798 22.1923 5.66171 19.7967 11.0563 18.2701C11.6665 20.3059 12.4853 22.4411 13.4839 24.5968C12.5235 26.6874 11.7355 28.7538 11.1436 30.7334C5.69616 29.208 2.46798 26.799 2.46798 24.4894ZM14.7455 43.5108C14.1736 43.5108 13.6647 43.3844 13.2331 43.1352C11.5585 42.1683 10.966 39.2797 11.6079 35.2102C11.7454 34.3385 11.9357 33.433 12.1744 32.5023C14.1824 32.9784 16.3631 33.3284 18.6505 33.5416C20.0158 35.48 21.4512 37.249 22.9105 38.7918C22.6899 39.0072 22.4693 39.2174 22.249 39.4204C19.3862 42.0583 16.7215 43.5108 14.7455 43.5108ZM36.2968 35.233C36.9387 39.3025 36.3462 42.1911 34.6716 43.158C32.9968 44.1248 30.1992 43.1936 26.9956 40.6031C26.321 40.0576 25.6437 39.4515 24.9686 38.7927C26.4132 37.2682 27.8519 35.5041 29.2319 33.5492C31.5251 33.3387 33.7163 32.9917 35.7291 32.5207C35.9684 33.453 36.1591 34.3599 36.2968 35.233ZM35.3348 31.1077C33.7627 31.473 32.0748 31.7604 30.3105 31.9635C30.906 31.055 31.4875 30.1121 32.0499 29.138C32.5898 28.2028 33.0983 27.2628 33.5745 26.3237C34.2786 27.9541 34.8691 29.5594 35.3348 31.1077ZM33.5813 22.8728C33.0771 21.8688 32.5353 20.8634 31.958 19.8635C31.3886 18.8773 30.7974 17.9182 30.1889 16.9914C32.083 17.2014 33.8369 17.5045 35.4309 17.8801C34.946 19.4942 34.3248 21.1706 33.5813 22.8728Z" fill="url(#paint0_linear_103787)"/>
<path d="M40.005 17.7493C39.1389 17.4161 38.2149 17.1138 37.2433 16.8425C37.4941 15.8655 37.6943 14.914 37.839 13.9973C38.5915 9.2257 37.7599 5.87852 35.4976 4.57232C34.8399 4.1926 34.0841 4 33.2512 4C30.6203 4 27.2961 5.95388 23.9424 9.2535C23.2098 8.53399 22.4739 7.87311 21.7403 7.27985C17.9843 4.24231 14.6695 3.28881 12.4074 4.59502C10.9535 5.43441 10.0693 7.14861 9.85053 9.55208C9.81373 9.95578 10.1112 10.3128 10.5149 10.3495C10.9199 10.3869 11.2755 10.0888 11.3123 9.68508C11.4335 8.3547 11.849 6.61231 13.1412 5.86629C14.8157 4.89928 17.6136 5.83057 20.8172 8.42115C21.5162 8.98642 22.218 9.61677 22.9175 10.3034C21.5109 11.8 20.1111 13.5226 18.767 15.4263C16.4026 15.6415 14.1505 16.0026 12.0837 16.4978C11.7218 15.0909 11.4732 13.7484 11.3506 12.5022C11.311 12.0988 10.9534 11.8041 10.5483 11.8437C10.1449 11.8833 9.85004 12.2426 9.88977 12.646C10.0195 13.9646 10.282 15.3829 10.6646 16.8672C9.72546 17.132 8.83156 17.4262 7.99178 17.7492C3.48294 19.4833 1 21.8771 1 24.4894C1 27.1017 3.48294 29.4955 7.99158 31.2296C8.85769 31.5627 9.78173 31.865 10.7533 32.1363C10.5025 33.1134 10.3023 34.0648 10.1576 34.9815C9.40515 39.7532 10.2367 43.1003 12.4991 44.4065C13.1567 44.7863 13.9125 44.9789 14.7455 44.9789C17.346 44.9789 20.6243 43.0689 23.9387 39.8379C24.6487 40.5314 25.3617 41.1698 26.0725 41.7445C28.7306 43.8942 31.1672 45.0001 33.1666 45C33.9924 44.9999 34.7441 44.8111 35.4054 44.4293C37.6677 43.1231 38.4993 39.776 37.7468 35.0044C37.6022 34.0877 37.402 33.1364 37.1512 32.1594C38.6621 31.7433 40.0519 31.2532 41.2828 30.6953C41.6521 30.528 41.8157 30.0931 41.6484 29.7238C41.481 29.3546 41.046 29.1909 40.6769 29.3583C39.5111 29.8866 38.1933 30.3517 36.7582 30.7472C36.1648 28.7644 35.3746 26.6944 34.4117 24.6005C35.4179 22.4355 36.2403 20.2941 36.8528 18.2455C42.3004 19.7709 45.5286 22.1799 45.5286 24.4894C45.5286 25.9816 44.2274 27.2127 43.1358 27.9826C42.8046 28.2163 42.7255 28.6742 42.9591 29.0055C43.1928 29.3369 43.6507 29.4159 43.982 29.1823C45.9542 27.7911 46.9966 26.1683 46.9966 24.4894C46.9966 21.8771 44.5137 19.4833 40.005 17.7493ZM33.2511 5.46807C33.823 5.46807 34.3319 5.59442 34.7635 5.84368C36.4381 6.81059 37.0306 9.69917 36.3887 13.7687C36.2512 14.6404 36.0609 15.5458 35.8222 16.4765C33.7467 15.9845 31.4868 15.6271 29.1153 15.4162C27.7847 13.533 26.3882 11.8109 24.9682 10.3024C25.2281 10.0462 25.4881 9.79763 25.7476 9.55844C28.6104 6.92069 31.2751 5.46807 33.2511 5.46807ZM23.9445 11.3549C25.052 12.5353 26.1464 13.8521 27.2056 15.2794C26.1517 15.222 25.0808 15.1922 23.9983 15.1922C22.8796 15.1922 21.773 15.2237 20.6851 15.2849C21.7428 13.86 22.8387 12.5379 23.9445 11.3549ZM23.9393 37.7449C22.7925 36.5294 21.6594 35.167 20.5643 33.6868C21.6911 33.7528 22.8381 33.7866 23.9983 33.7866C25.1158 33.7866 26.223 33.754 27.3131 33.6918C26.219 35.166 25.084 36.5309 23.9393 37.7449ZM23.9983 32.3186C22.4212 32.3186 20.9079 32.2576 19.4658 32.1441C18.6557 30.9622 17.8721 29.719 17.1261 28.4267C16.3918 27.155 15.7164 25.8718 15.1045 24.5948C15.7397 23.2579 16.446 21.9122 17.218 20.5748C17.9657 19.2799 18.7594 18.0242 19.5841 16.8259C20.9908 16.7184 22.4642 16.6602 23.9983 16.6602C25.493 16.6602 26.9299 16.7154 28.3038 16.8177C29.1292 18.0182 29.9274 19.2824 30.6867 20.5975C31.4549 21.9282 32.158 23.2672 32.7908 24.5976C32.1822 25.8641 31.5096 27.1379 30.7787 28.4039C30.0325 29.6964 29.2403 30.9499 28.4172 32.1462C26.977 32.2595 25.4979 32.3186 23.9983 32.3186ZM17.5769 31.9609C15.771 31.7523 14.0946 31.459 12.5657 31.0988C13.03 29.5536 13.6185 27.9514 14.3203 26.3239C14.7997 27.272 15.3115 28.2199 15.8548 29.1607C16.4094 30.1216 16.985 31.0565 17.5769 31.9609ZM17.6933 17.0043C17.0953 17.9162 16.5113 18.8629 15.9467 19.8408C15.3661 20.8465 14.8214 21.8578 14.3146 22.8676C13.5765 21.1728 12.9584 19.5034 12.476 17.9011C14.0617 17.5234 15.8075 17.2177 17.6933 17.0043ZM2.46798 24.4894C2.46798 22.1923 5.66171 19.7967 11.0563 18.2701C11.6665 20.3059 12.4853 22.4411 13.4839 24.5968C12.5235 26.6874 11.7355 28.7538 11.1436 30.7334C5.69616 29.208 2.46798 26.799 2.46798 24.4894ZM14.7455 43.5108C14.1736 43.5108 13.6647 43.3844 13.2331 43.1352C11.5585 42.1683 10.966 39.2797 11.6079 35.2102C11.7454 34.3385 11.9357 33.433 12.1744 32.5023C14.1824 32.9784 16.3631 33.3284 18.6505 33.5416C20.0158 35.48 21.4512 37.249 22.9105 38.7918C22.6899 39.0072 22.4693 39.2174 22.249 39.4204C19.3862 42.0583 16.7215 43.5108 14.7455 43.5108ZM36.2968 35.233C36.9387 39.3025 36.3462 42.1911 34.6716 43.158C32.9968 44.1248 30.1992 43.1936 26.9956 40.6031C26.321 40.0576 25.6437 39.4515 24.9686 38.7927C26.4132 37.2682 27.8519 35.5041 29.2319 33.5492C31.5251 33.3387 33.7163 32.9917 35.7291 32.5207C35.9684 33.453 36.1591 34.3599 36.2968 35.233ZM35.3348 31.1077C33.7627 31.473 32.0748 31.7604 30.3105 31.9635C30.906 31.055 31.4875 30.1121 32.0499 29.138C32.5898 28.2028 33.0983 27.2628 33.5745 26.3237C34.2786 27.9541 34.8691 29.5594 35.3348 31.1077ZM33.5813 22.8728C33.0771 21.8688 32.5353 20.8634 31.958 19.8635C31.3886 18.8773 30.7974 17.9182 30.1889 16.9914C32.083 17.2014 33.8369 17.5045 35.4309 17.8801C34.946 19.4942 34.3248 21.1706 33.5813 22.8728Z" stroke="url(#paint1_linear_103787)" mask="url(#path-1-outside-1_103787)"/>
<path d="M23.9981 20.5693C21.8363 20.5693 20.0781 22.3276 20.0781 24.4893C20.0781 26.651 21.8363 28.4092 23.9981 28.4092C26.1598 28.4092 27.918 26.651 27.918 24.4893C27.918 22.3276 26.1598 20.5693 23.9981 20.5693ZM23.9981 26.4412C22.922 26.4412 22.0461 25.5653 22.0461 24.4893C22.0461 23.4132 22.922 22.5373 23.9981 22.5373C25.0741 22.5373 25.95 23.4132 25.95 24.4893C25.95 25.5653 25.0741 26.4412 23.9981 26.4412Z" fill="url(#paint2_linear_103787)" stroke="url(#paint3_linear_103787)" stroke-width="0.5"/>
<defs>
<linearGradient id="paint0_linear_103787" x1="1" y1="4" x2="34.4072" y2="59.6748" gradientUnits="userSpaceOnUse">
<stop stop-color="#FFB300"/>
<stop offset="0.7025" stop-color="#FF6600"/>
</linearGradient>
<linearGradient id="paint1_linear_103787" x1="1" y1="4" x2="34.4072" y2="59.6748" gradientUnits="userSpaceOnUse">
<stop stop-color="#FFB300"/>
<stop offset="0.7025" stop-color="#FF6600"/>
</linearGradient>
<linearGradient id="paint2_linear_103787" x1="20.3281" y1="20.8193" x2="26.6077" y2="30.1477" gradientUnits="userSpaceOnUse">
<stop stop-color="#FFB300"/>
<stop offset="0.7025" stop-color="#FF6600"/>
</linearGradient>
<linearGradient id="paint3_linear_103787" x1="20.3281" y1="20.8193" x2="26.6077" y2="30.1477" gradientUnits="userSpaceOnUse">
<stop stop-color="#FFB300"/>
<stop offset="0.7025" stop-color="#FF6600"/>
</linearGradient>
</defs>
</svg>
