<svg width="48" height="48" viewBox="0 0 48 48" fill="none" xmlns="http://www.w3.org/2000/svg">
<path d="M27.2842 22.7635C27.4257 23.0403 27.7074 23.2003 27.9986 23.2003C28.1202 23.2003 28.2449 23.1722 28.361 23.1131C28.4081 23.0891 33.117 20.697 35.4394 19.9634C35.8602 19.8298 36.0938 19.3802 35.9602 18.9595C35.8273 18.5386 35.381 18.3042 34.9562 18.4371C32.5098 19.2107 27.833 21.5867 27.6346 21.6875C27.241 21.8875 27.0842 22.3692 27.2842 22.7635Z" fill="url(#paint0_linear)"/>
<path d="M27.9985 13.6001C28.1201 13.6001 28.2449 13.5721 28.361 13.5129C28.4081 13.4889 33.117 11.0969 35.4394 10.3633C35.8602 10.2297 36.0937 9.78012 35.9602 9.35937C35.8273 8.93853 35.381 8.70415 34.9562 8.837C32.5098 9.61062 27.833 11.9866 27.6346 12.0874C27.241 12.2874 27.0842 12.769 27.2842 13.1634C27.4257 13.4401 27.7074 13.6001 27.9985 13.6001Z" fill="url(#paint1_linear)"/>
<path d="M47.1999 12.0004C46.7575 12.0004 46.4 12.3588 46.4 12.8003V44.0003C46.4 45.3235 45.3231 46.4003 44 46.4003H24.8V44.5595C25.9664 44.1515 29.0048 43.2003 32 43.2003C38.9688 43.2003 43.7008 44.7435 43.748 44.7595C43.9887 44.8394 44.2576 44.7995 44.468 44.649C44.6767 44.4986 44.7999 44.257 44.7999 44.0002V8.8004C44.7999 8.42521 44.54 8.10037 44.1735 8.01955C44.1735 8.01955 43.5463 7.87958 42.4743 7.68271C42.0414 7.60274 41.6231 7.89074 41.5431 8.32433C41.4631 8.75952 41.7502 9.17633 42.1847 9.2563C42.5935 9.33149 42.9359 9.39786 43.1999 9.45074V42.937C41.3871 42.4618 37.3615 41.6003 31.9999 41.6003C28.5143 41.6003 25.0903 42.745 24.0311 43.1331C23.0894 42.7171 20.2431 41.6003 16.7999 41.6003C11.2894 41.6003 6.75027 42.5091 4.7999 42.9707V9.41952C6.39749 9.02671 11.1159 8.00033 16.7999 8.00033C19.7167 8.00033 22.2182 8.9083 23.1999 9.31874V40.8003C23.1999 41.0883 23.355 41.3547 23.6054 41.4963C23.8559 41.6387 24.1647 41.6347 24.4119 41.4859C24.4911 41.4387 32.4175 36.7043 39.4526 34.3595C39.7798 34.2499 39.9998 33.9451 39.9998 33.6003V0.800348C39.9998 0.537942 39.871 0.292318 39.655 0.142787C39.4406 -0.00683773 39.1655 -0.0412439 38.9183 0.0508184C32.5175 2.45156 26.0408 6.48196 25.9759 6.52199C25.6015 6.75637 25.4871 7.24996 25.7215 7.6244C25.9551 7.99883 26.4487 8.11321 26.8239 7.87883C26.883 7.84124 32.5175 4.33565 38.3998 1.97006V33.0276C32.939 34.9252 27.2374 38.0236 24.7998 39.4107V8.8004C24.7998 8.49721 24.6286 8.22037 24.3574 8.08443C24.2198 8.01646 20.9415 6.4004 16.7999 6.4004C9.5711 6.4004 4.01352 7.96443 3.7799 8.03155C3.43668 8.12915 3.19987 8.44358 3.19987 8.8004V44.0004C3.19987 44.2508 3.31827 44.4876 3.51749 44.6388C3.6583 44.7452 3.8279 44.8004 3.99993 44.8004C4.07352 44.8004 4.14712 44.79 4.21912 44.7692C4.27433 44.754 9.80632 43.2004 16.7999 43.2004C19.7247 43.2004 22.2239 44.1108 23.1999 44.5195V46.4004H3.99993C2.67674 46.4004 1.59993 45.3235 1.59993 44.0004V12.8004C1.59993 12.3589 1.24153 12.0005 0.799967 12.0005C0.358405 12.0005 0 12.3589 0 12.8004V44.0004C0 46.2059 1.79437 48.0004 4.00002 48.0004H44C46.2055 48.0004 48 46.206 48 44.0004V12.8004C47.9999 12.3588 47.6423 12.0004 47.1999 12.0004Z" fill="url(#paint2_linear)"/>
<path d="M27.2842 17.9632C27.4257 18.24 27.7074 18.4 27.9986 18.4C28.1202 18.4 28.2449 18.3719 28.361 18.3128C28.4081 18.2888 33.117 15.8967 35.4394 15.1631C35.8602 15.0295 36.0938 14.5799 35.9602 14.1592C35.8273 13.7383 35.381 13.504 34.9562 13.6368C32.5098 14.4104 27.833 16.7864 27.6346 16.8872C27.241 17.0872 27.0842 17.5689 27.2842 17.9632Z" fill="url(#paint3_linear)"/>
<path d="M27.2842 27.5633C27.4257 27.8401 27.7074 28 27.9986 28C28.1202 28 28.2449 27.972 28.361 27.9129C28.4081 27.8889 33.117 25.4968 35.4394 24.7632C35.8602 24.6296 36.0938 24.18 35.9602 23.7593C35.8273 23.3384 35.381 23.1041 34.9562 23.2369C32.5098 24.0105 27.833 26.3865 27.6346 26.4873C27.241 26.6873 27.0842 27.1689 27.2842 27.5633Z" fill="url(#paint4_linear)"/>
<path d="M19.3806 14.8464C14.4407 13.6872 8.82705 15.1641 8.59108 15.2273C8.16471 15.3416 7.91112 15.78 8.02549 16.2072C8.12149 16.5648 8.44465 16.8 8.79752 16.8C8.86633 16.8 8.9359 16.7912 9.00555 16.7728C9.05918 16.7576 14.4639 15.336 19.016 16.404C19.4439 16.504 19.8768 16.2376 19.9776 15.8072C20.0782 15.3776 19.8111 14.9472 19.3806 14.8464Z" fill="url(#paint5_linear)"/>
<path d="M19.3806 19.6469C14.4407 18.4885 8.82705 19.9645 8.59108 20.0277C8.16471 20.142 7.91112 20.5805 8.02549 21.0076C8.12149 21.3652 8.44465 21.6004 8.79752 21.6004C8.86633 21.6004 8.9359 21.5916 9.00555 21.5732C9.05918 21.558 14.4639 20.1364 19.016 21.2044C19.4439 21.3045 19.8768 21.038 19.9776 20.6076C20.0782 20.178 19.8111 19.7476 19.3806 19.6469Z" fill="url(#paint6_linear)"/>
<path d="M27.2842 32.3635C27.4257 32.6404 27.7074 32.8003 27.9986 32.8003C28.1202 32.8003 28.2449 32.7723 28.361 32.7131C28.4081 32.6891 33.117 30.2971 35.4394 29.5635C35.8602 29.4299 36.0938 28.9803 35.9602 28.5596C35.8273 28.1388 35.381 27.9043 34.9562 28.0372C32.5098 28.8108 27.833 31.1868 27.6346 31.2876C27.241 31.4876 27.0842 31.9692 27.2842 32.3635Z" fill="url(#paint7_linear)"/>
<path d="M19.3806 24.4468C14.4407 23.2884 8.82705 24.7636 8.59108 24.8276C8.16471 24.942 7.91112 25.3805 8.02549 25.8076C8.12149 26.1652 8.44465 26.4012 8.79752 26.4012C8.86633 26.4012 8.9359 26.3917 9.00555 26.3732C9.05918 26.358 14.4639 24.9364 19.016 26.0044C19.4439 26.1044 19.8768 25.838 19.9776 25.4076C20.0782 24.978 19.8111 24.5476 19.3806 24.4468Z" fill="url(#paint8_linear)"/>
<path d="M19.3806 34.0466C14.4407 32.8874 8.82705 34.3643 8.59108 34.4275C8.16471 34.5418 7.91112 34.9803 8.02549 35.4074C8.12149 35.765 8.44465 36.001 8.79752 36.001C8.86633 36.001 8.9359 35.9915 9.00555 35.973C9.05918 35.9578 14.4639 34.5362 19.016 35.6042C19.4439 35.7034 19.8768 35.4378 19.9776 35.0074C20.0782 34.5778 19.8111 34.1474 19.3806 34.0466Z" fill="url(#paint9_linear)"/>
<path d="M19.3806 29.2465C14.4407 28.0873 8.82705 29.5633 8.59108 29.6273C8.16471 29.7417 7.91112 30.1801 8.02549 30.6073C8.12149 30.9648 8.44465 31.2009 8.79752 31.2009C8.86633 31.2009 8.9359 31.1913 9.00555 31.1729C9.05918 31.1577 14.4639 29.7361 19.016 30.804C19.4439 30.9041 19.8768 30.6376 19.9776 30.2072C20.0782 29.7777 19.8111 29.3473 19.3806 29.2465Z" fill="url(#paint10_linear)"/>
<defs>
<linearGradient id="paint0_linear" x1="27.1973" y1="18.3999" x2="30.0658" y2="26.2121" gradientUnits="userSpaceOnUse">
<stop stop-color="#FFB300"/>
<stop offset="0.7025" stop-color="#FF6600"/>
</linearGradient>
<linearGradient id="paint1_linear" x1="27.1973" y1="8.7998" x2="30.0658" y2="16.612" gradientUnits="userSpaceOnUse">
<stop stop-color="#FFB300"/>
<stop offset="0.7025" stop-color="#FF6600"/>
</linearGradient>
<linearGradient id="paint2_linear" x1="0" y1="0" x2="41.0664" y2="61.0043" gradientUnits="userSpaceOnUse">
<stop stop-color="#FFB300"/>
<stop offset="0.7025" stop-color="#FF6600"/>
</linearGradient>
<linearGradient id="paint3_linear" x1="27.1973" y1="13.5996" x2="30.0658" y2="21.4118" gradientUnits="userSpaceOnUse">
<stop stop-color="#FFB300"/>
<stop offset="0.7025" stop-color="#FF6600"/>
</linearGradient>
<linearGradient id="paint4_linear" x1="27.1973" y1="23.1997" x2="30.0658" y2="31.0119" gradientUnits="userSpaceOnUse">
<stop stop-color="#FFB300"/>
<stop offset="0.7025" stop-color="#FF6600"/>
</linearGradient>
<linearGradient id="paint5_linear" x1="7.99805" y1="14.4038" x2="8.58232" y2="18.7507" gradientUnits="userSpaceOnUse">
<stop stop-color="#FFB300"/>
<stop offset="0.7025" stop-color="#FF6600"/>
</linearGradient>
<linearGradient id="paint6_linear" x1="7.99805" y1="19.2046" x2="8.58214" y2="23.5508" gradientUnits="userSpaceOnUse">
<stop stop-color="#FFB300"/>
<stop offset="0.7025" stop-color="#FF6600"/>
</linearGradient>
<linearGradient id="paint7_linear" x1="27.1973" y1="28" x2="30.0658" y2="35.8122" gradientUnits="userSpaceOnUse">
<stop stop-color="#FFB300"/>
<stop offset="0.7025" stop-color="#FF6600"/>
</linearGradient>
<linearGradient id="paint8_linear" x1="7.99805" y1="24.0044" x2="8.58261" y2="28.3523" gradientUnits="userSpaceOnUse">
<stop stop-color="#FFB300"/>
<stop offset="0.7025" stop-color="#FF6600"/>
</linearGradient>
<linearGradient id="paint9_linear" x1="7.99805" y1="33.604" x2="8.58272" y2="37.9523" gradientUnits="userSpaceOnUse">
<stop stop-color="#FFB300"/>
<stop offset="0.7025" stop-color="#FF6600"/>
</linearGradient>
<linearGradient id="paint10_linear" x1="7.99805" y1="28.8037" x2="8.58279" y2="33.1523" gradientUnits="userSpaceOnUse">
<stop stop-color="#FFB300"/>
<stop offset="0.7025" stop-color="#FF6600"/>
</linearGradient>
</defs>
</svg>
