<svg width="80" height="80" viewBox="0 0 80 80" fill="none" xmlns="http://www.w3.org/2000/svg">
<path d="M71.302 53.4502L55.9511 50.0404V47.5988C58.2856 46.072 60.1141 43.843 61.1451 41.2127H64.5345C67.2396 41.2127 69.4393 39.013 69.4393 36.3079V27.7245C69.4393 25.9169 68.446 24.3524 66.9869 23.5016V18.1394C66.9869 15.4685 65.3907 13.0885 62.9653 12.0599L62.6731 11.4749C59.7513 5.63071 53.8765 2 47.342 2C37.8904 2.0012 30.2009 9.69071 30.2009 19.1423V23.5028C28.7418 24.3536 27.7485 25.9181 27.7485 27.7257V36.3091C27.7485 39.0142 29.9482 41.2139 32.6533 41.2139H36.0427C37.0737 43.8442 38.9022 46.0732 41.2367 47.6V50.0416L25.8858 53.4514C21.9288 54.3303 19.165 57.7772 19.165 61.8301V78H78.0228V61.8301C78.0228 57.7772 75.259 54.3303 71.302 53.4502ZM57.0055 52.7868L55.1835 60.074L50.5176 56.9648L55.1159 52.3665L57.0055 52.7868ZM47.1468 65.738H50.0422L52.0037 75.5476H45.1853L47.1468 65.738ZM50.0889 63.2856H47.0989L46.3133 60.1476L48.5939 58.6286L50.8733 60.1488L50.0889 63.2856ZM66.9869 36.3091C66.9869 37.6617 65.8871 38.7615 64.5345 38.7615H61.848C61.9953 37.9646 62.0821 37.1479 62.0821 36.3091V25.2733H64.5345C65.8871 25.2733 66.9869 26.3732 66.9869 27.7257V36.3091ZM32.6533 19.1423C32.6533 11.0432 39.2429 4.4536 47.342 4.4536C52.9407 4.4536 57.9754 7.56461 60.4793 12.5736L61.214 14.0399L61.6959 14.201C63.3927 14.7674 64.5345 16.3504 64.5345 18.1418V22.8209H62.0821V19.1423H59.6297V22.036C58.7161 22.5036 57.718 22.7658 56.6894 22.8035C57.2546 22.2886 57.7635 21.7025 58.1976 21.0492L56.1571 19.6889C54.8967 21.5797 52.8156 22.7251 50.5559 22.8059C51.1223 22.2898 51.6313 21.7025 52.0665 21.0492L50.0261 19.6889C48.7657 21.5797 46.6845 22.7251 44.4249 22.8059C44.9913 22.2898 45.5003 21.7025 45.9355 21.0492L43.8951 19.6889C42.588 21.6498 40.3991 22.8209 38.0424 22.8209H37.5581V19.1423H35.1057V22.8209H32.6533V19.1423ZM32.6533 38.7615C31.3007 38.7615 30.2009 37.6617 30.2009 36.3091V27.7257C30.2009 26.3732 31.3007 25.2733 32.6533 25.2733H35.1057V36.3091C35.1057 37.1479 35.1925 37.9646 35.3398 38.7615H32.6533ZM37.5581 36.3091V25.2733H38.0424C39.6105 25.2733 41.1211 24.8859 42.4629 24.1794V25.2733H44.1735C45.7415 25.2733 47.2521 24.8859 48.5939 24.1794V25.2733H50.3045C51.8726 25.2733 53.3832 24.8859 54.7249 24.1794V25.2733H56.4355C57.5342 25.2733 58.6083 25.0613 59.6297 24.6943V36.3091C59.6297 37.1527 59.5255 37.9718 59.3453 38.7615H53.2718C52.7641 37.3377 51.4151 36.3091 49.8189 36.3091H47.3665C45.3386 36.3091 43.6879 37.9598 43.6879 39.9877C43.6879 42.0156 45.3386 43.6663 47.3665 43.6663H49.8189C51.4151 43.6663 52.7641 42.6377 53.2718 41.2139H58.4646C56.6552 44.841 52.9149 47.3449 48.5939 47.3449C42.5084 47.3449 37.5581 42.3946 37.5581 36.3091ZM51.0463 39.9877C51.0463 40.6631 50.4967 41.2139 49.8201 41.2139H47.3677C46.6911 41.2139 46.1415 40.6631 46.1415 39.9877C46.1415 39.3124 46.6911 38.7615 47.3677 38.7615H49.8201C50.4967 38.7615 51.0463 39.3124 51.0463 39.9877ZM48.5939 49.7973C50.3254 49.7973 51.9755 49.4579 53.4987 48.8603V50.5158L48.5939 55.4206L43.6891 50.5158V48.8603C45.2123 49.4579 46.8624 49.7973 48.5939 49.7973ZM42.0719 52.3665L46.6702 56.9648L42.0043 60.074L40.1823 52.7868L42.0719 52.3665ZM21.6174 61.8301C21.6174 58.9352 23.5915 56.4726 26.4181 55.8451L37.7886 53.3179L40.4691 64.0448L44.1477 61.5924L44.8848 64.5423L42.6838 75.5476H31.4271V62.0594H28.9747V75.5476H21.6174V61.8301ZM75.5704 75.5476H68.2131V62.0594H65.7607V75.5476H54.504L52.303 64.5423L53.0401 61.5924L56.7187 64.0448L59.3992 53.3179L70.7697 55.8451C73.5963 56.4726 75.5704 58.9352 75.5704 61.8301V75.5476Z" fill="url(#paint0_linear_3892:22826)"/>
<path d="M57.177 28.9762C57.177 29.6534 56.628 30.2024 55.9508 30.2024C55.2736 30.2024 54.7246 29.6534 54.7246 28.9762C54.7246 28.299 55.2736 27.75 55.9508 27.75C56.628 27.75 57.177 28.299 57.177 28.9762Z" fill="url(#paint1_linear_3892:22826)"/>
<path d="M42.4631 28.9762C42.4631 29.6534 41.9141 30.2024 41.2369 30.2024C40.5598 30.2024 40.0107 29.6534 40.0107 28.9762C40.0107 28.299 40.5598 27.75 41.2369 27.75C41.9141 27.75 42.4631 28.299 42.4631 28.9762Z" fill="url(#paint2_linear_3892:22826)"/>
<path d="M6.90234 6.90479H19.1644V9.35719H6.90234V6.90479Z" fill="url(#paint3_linear_3892:22826)"/>
<path d="M6.90234 11.8096H19.1644V14.262H6.90234V11.8096Z" fill="url(#paint4_linear_3892:22826)"/>
<path d="M20.3911 23.6855V19.1668H24.0697V2H1.99805V19.1668H12.113L20.3911 23.6855ZM4.45045 4.4524H21.6173V16.7144H17.9387V19.553L12.7381 16.7144H4.45045V4.4524Z" fill="url(#paint5_linear_3892:22826)"/>
<path d="M27.7483 47.345H7.9674L9.35526 45.2644V25.2733C9.35526 23.2454 7.70456 21.5947 5.67665 21.5947C3.64875 21.5947 1.99805 23.2454 1.99805 25.2733V45.2644L5.02044 49.7974H27.7483V47.345ZM5.67665 24.0471C6.35322 24.0471 6.90286 24.598 6.90286 25.2733V27.7257H4.45045V25.2733C4.45045 24.598 5.00009 24.0471 5.67665 24.0471ZM5.67665 46.3601L4.45045 44.5208V30.1781H6.90286V44.5208L5.67665 46.3601Z" fill="url(#paint6_linear_3892:22826)"/>
<path d="M25.2959 42.4648H27.7483V44.9172H25.2959V42.4648Z" fill="url(#paint7_linear_3892:22826)"/>
<path d="M11.8076 42.4399H22.8434V44.8923H11.8076V42.4399Z" fill="url(#paint8_linear_3892:22826)"/>
<path d="M11.8076 37.5601H22.8434V40.0125H11.8076V37.5601Z" fill="url(#paint9_linear_3892:22826)"/>
<path d="M20.3916 32.6553H22.844V35.1077H20.3916V32.6553Z" fill="url(#paint10_linear_3892:22826)"/>
<path d="M11.8076 32.6553H17.9386V35.1077H11.8076V32.6553Z" fill="url(#paint11_linear_3892:22826)"/>
<defs>
<linearGradient id="paint0_linear_3892:22826" x1="51.1086" y1="43.2893" x2="72.2652" y2="59.5498" gradientUnits="userSpaceOnUse">
<stop stop-color="#33CC33"/>
<stop offset="1" stop-color="#339C4C"/>
</linearGradient>
<linearGradient id="paint1_linear_3892:22826" x1="56.0556" y1="29.0823" x2="56.762" y2="29.7835" gradientUnits="userSpaceOnUse">
<stop stop-color="#33CC33"/>
<stop offset="1" stop-color="#339C4C"/>
</linearGradient>
<linearGradient id="paint2_linear_3892:22826" x1="41.3417" y1="29.0823" x2="42.0482" y2="29.7835" gradientUnits="userSpaceOnUse">
<stop stop-color="#33CC33"/>
<stop offset="1" stop-color="#339C4C"/>
</linearGradient>
<linearGradient id="paint3_linear_3892:22826" x1="13.5573" y1="8.23713" x2="13.8309" y2="9.59493" gradientUnits="userSpaceOnUse">
<stop stop-color="#33CC33"/>
<stop offset="1" stop-color="#339C4C"/>
</linearGradient>
<linearGradient id="paint4_linear_3892:22826" x1="13.5573" y1="13.1419" x2="13.8309" y2="14.4997" gradientUnits="userSpaceOnUse">
<stop stop-color="#33CC33"/>
<stop offset="1" stop-color="#339C4C"/>
</linearGradient>
<linearGradient id="paint5_linear_3892:22826" x1="13.9769" y1="13.7813" x2="20.2236" y2="20.0911" gradientUnits="userSpaceOnUse">
<stop stop-color="#33CC33"/>
<stop offset="1" stop-color="#339C4C"/>
</linearGradient>
<linearGradient id="paint6_linear_3892:22826" x1="15.9734" y1="36.9167" x2="24.0585" y2="44.2429" gradientUnits="userSpaceOnUse">
<stop stop-color="#33CC33"/>
<stop offset="1" stop-color="#339C4C"/>
</linearGradient>
<linearGradient id="paint7_linear_3892:22826" x1="26.6269" y1="43.7972" x2="27.3333" y2="44.4983" gradientUnits="userSpaceOnUse">
<stop stop-color="#33CC33"/>
<stop offset="1" stop-color="#339C4C"/>
</linearGradient>
<linearGradient id="paint8_linear_3892:22826" x1="17.797" y1="43.7723" x2="18.0983" y2="45.1178" gradientUnits="userSpaceOnUse">
<stop stop-color="#33CC33"/>
<stop offset="1" stop-color="#339C4C"/>
</linearGradient>
<linearGradient id="paint9_linear_3892:22826" x1="17.797" y1="38.8924" x2="18.0983" y2="40.2379" gradientUnits="userSpaceOnUse">
<stop stop-color="#33CC33"/>
<stop offset="1" stop-color="#339C4C"/>
</linearGradient>
<linearGradient id="paint10_linear_3892:22826" x1="21.7226" y1="33.9876" x2="22.429" y2="34.6887" gradientUnits="userSpaceOnUse">
<stop stop-color="#33CC33"/>
<stop offset="1" stop-color="#339C4C"/>
</linearGradient>
<linearGradient id="paint11_linear_3892:22826" x1="15.1351" y1="33.9876" x2="15.625" y2="35.2031" gradientUnits="userSpaceOnUse">
<stop stop-color="#33CC33"/>
<stop offset="1" stop-color="#339C4C"/>
</linearGradient>
</defs>
</svg>
