<svg width="80" height="80" viewBox="0 0 80 80" fill="none" xmlns="http://www.w3.org/2000/svg">
<path d="M59.4997 26.4334C56.0994 26.4334 53.333 23.6671 53.333 20.2668C53.333 16.8665 56.0994 14.1001 59.4997 14.1001C62.9 14.1001 65.6663 16.8665 65.6663 20.2668C65.6663 23.6671 62.9 26.4334 59.4997 26.4334ZM59.4997 16.5668C57.4597 16.5668 55.7997 18.2268 55.7997 20.2668C55.7997 22.3067 57.4597 23.9668 59.4997 23.9668C61.5396 23.9668 63.1997 22.3067 63.1997 20.2668C63.1997 18.2268 61.5396 16.5668 59.4997 16.5668Z" fill="url(#paint0_linear_392514416)"/>
<path d="M16.3333 77H5.23333C4.55253 77 4 76.4487 4 75.7667V62.2C4 61.8719 4.1295 61.5587 4.36137 61.328L29.1008 36.5874C27.9945 33.7408 27.4333 30.7438 27.4333 27.6667C27.4333 14.0655 38.4988 3 52.1 3C65.7012 3 76.7667 14.0655 76.7667 27.6667C76.7667 41.2679 65.7012 52.3333 52.1 52.3333C49.0216 52.3333 46.0246 51.7722 43.1793 50.6646L36.9386 56.9053C36.708 57.1372 36.3935 57.2667 36.0667 57.2667H31.1333V60.9667C31.1333 61.6487 30.5808 62.2 29.9 62.2H27.4333V64.6667C27.4333 65.3487 26.8808 65.9 26.2 65.9H21.2667V72.0667C21.2667 72.3947 21.1372 72.708 20.9053 72.9386L17.2053 76.6386C16.9747 76.8705 16.6602 77 16.3333 77ZM6.46667 74.5333H15.8227L18.8 71.5561V64.6667C18.8 63.9846 19.3525 63.4333 20.0333 63.4333H24.9667V60.9667C24.9667 60.2846 25.5192 59.7333 26.2 59.7333H28.6667V56.0333C28.6667 55.3513 29.2192 54.8 29.9 54.8H35.5561L42.015 48.3423C42.3727 47.9858 42.9104 47.8822 43.3729 48.0808C46.1393 49.266 49.0759 49.8667 52.1 49.8667C64.3408 49.8667 74.3 39.9075 74.3 27.6667C74.3 15.4258 64.3408 5.46667 52.1 5.46667C39.8592 5.46667 29.9 15.4258 29.9 27.6667C29.9 30.6896 30.5006 33.6261 31.6859 36.395C31.8844 36.8587 31.7808 37.3964 31.4244 37.7529L6.46667 62.7106V74.5333Z" fill="url(#paint1_linear_392514416)"/>
<path d="M13.8665 62.2001C13.5507 62.2001 13.235 62.0792 12.9945 61.8387C12.5123 61.3565 12.5123 60.577 12.9945 60.0948L27.7945 45.2948C28.2755 44.8125 29.0574 44.8125 29.5384 45.2948C30.0207 45.777 30.0207 46.5565 29.5384 47.0387L14.7384 61.8387C14.4979 62.0792 14.1822 62.2001 13.8665 62.2001Z" fill="url(#paint2_linear_392514416)"/>
<path d="M52.1005 47.4003C51.4197 47.4003 50.8672 46.849 50.8672 46.1669C50.8672 45.4849 51.4197 44.9336 52.1005 44.9336C61.6219 44.9336 69.3672 37.1883 69.3672 27.6669C69.3672 26.9849 69.9197 26.4336 70.6005 26.4336C71.2813 26.4336 71.8339 26.9849 71.8339 27.6669C71.8339 38.5474 62.9822 47.4003 52.1005 47.4003Z" fill="url(#paint3_linear_392514416)"/>
<defs>
<linearGradient id="paint0_linear_392514416" x1="60.0266" y1="20.8005" x2="63.5794" y2="24.3265" gradientUnits="userSpaceOnUse">
<stop stop-color="#33CC33"/>
<stop offset="1" stop-color="#339C4C"/>
</linearGradient>
<linearGradient id="paint1_linear_392514416" x1="43.4924" y1="43.2027" x2="64.8035" y2="64.0001" gradientUnits="userSpaceOnUse">
<stop stop-color="#33CC33"/>
<stop offset="1" stop-color="#339C4C"/>
</linearGradient>
<linearGradient id="paint2_linear_392514416" x1="22.0042" y1="54.3139" x2="26.9782" y2="59.2504" gradientUnits="userSpaceOnUse">
<stop stop-color="#33CC33"/>
<stop offset="1" stop-color="#339C4C"/>
</linearGradient>
<linearGradient id="paint3_linear_392514416" x1="62.2463" y1="37.8244" x2="68.2861" y2="43.8184" gradientUnits="userSpaceOnUse">
<stop stop-color="#33CC33"/>
<stop offset="1" stop-color="#339C4C"/>
</linearGradient>
</defs>
</svg>
