<svg width="73" height="74" viewBox="0 0 73 74" fill="none" xmlns="http://www.w3.org/2000/svg">
<path d="M55.5006 23.4334C52.1004 23.4334 49.334 20.6671 49.334 17.2668C49.334 13.8665 52.1004 11.1001 55.5006 11.1001C58.9009 11.1001 61.6673 13.8665 61.6673 17.2668C61.6673 20.6671 58.9009 23.4334 55.5006 23.4334ZM55.5006 13.5668C53.4607 13.5668 51.8007 15.2268 51.8007 17.2668C51.8007 19.3067 53.4607 20.9668 55.5006 20.9668C57.5406 20.9668 59.2006 19.3067 59.2006 17.2668C59.2006 15.2268 57.5406 13.5668 55.5006 13.5668Z" fill="url(#paint0_linear_3892:22770)"/>
<path d="M12.3333 74H1.23333C0.552533 74 0 73.4487 0 72.7667V59.2C0 58.8719 0.1295 58.5587 0.361367 58.328L25.1008 33.5874C23.9945 30.7408 23.4333 27.7438 23.4333 24.6667C23.4333 11.0655 34.4988 0 48.1 0C61.7012 0 72.7667 11.0655 72.7667 24.6667C72.7667 38.2679 61.7012 49.3333 48.1 49.3333C45.0216 49.3333 42.0246 48.7722 39.1793 47.6646L32.9386 53.9053C32.708 54.1372 32.3935 54.2667 32.0667 54.2667H27.1333V57.9667C27.1333 58.6487 26.5808 59.2 25.9 59.2H23.4333V61.6667C23.4333 62.3487 22.8808 62.9 22.2 62.9H17.2667V69.0667C17.2667 69.3947 17.1372 69.708 16.9053 69.9386L13.2053 73.6386C12.9747 73.8705 12.6602 74 12.3333 74ZM2.46667 71.5333H11.8227L14.8 68.5561V61.6667C14.8 60.9846 15.3525 60.4333 16.0333 60.4333H20.9667V57.9667C20.9667 57.2846 21.5192 56.7333 22.2 56.7333H24.6667V53.0333C24.6667 52.3513 25.2192 51.8 25.9 51.8H31.5561L38.015 45.3423C38.3727 44.9858 38.9104 44.8822 39.3729 45.0808C42.1393 46.266 45.0759 46.8667 48.1 46.8667C60.3408 46.8667 70.3 36.9075 70.3 24.6667C70.3 12.4258 60.3408 2.46667 48.1 2.46667C35.8592 2.46667 25.9 12.4258 25.9 24.6667C25.9 27.6896 26.5006 30.6261 27.6859 33.395C27.8844 33.8587 27.7808 34.3964 27.4244 34.7529L2.46667 59.7106V71.5333Z" fill="url(#paint1_linear_3892:22770)"/>
<path d="M9.86645 59.2001C9.55072 59.2001 9.23499 59.0792 8.99449 58.8387C8.51225 58.3565 8.51225 57.577 8.99449 57.0948L23.7945 42.2948C24.2755 41.8125 25.0574 41.8125 25.5384 42.2948C26.0207 42.777 26.0207 43.5565 25.5384 44.0387L10.7384 58.8387C10.4979 59.0792 10.1822 59.2001 9.86645 59.2001Z" fill="url(#paint2_linear_3892:22770)"/>
<path d="M48.1005 44.4003C47.4197 44.4003 46.8672 43.849 46.8672 43.1669C46.8672 42.4849 47.4197 41.9336 48.1005 41.9336C57.6219 41.9336 65.3672 34.1883 65.3672 24.6669C65.3672 23.9849 65.9197 23.4336 66.6005 23.4336C67.2813 23.4336 67.8339 23.9849 67.8339 24.6669C67.8339 35.5474 58.9822 44.4003 48.1005 44.4003Z" fill="url(#paint3_linear_3892:22770)"/>
<defs>
<linearGradient id="paint0_linear_3892:22770" x1="56.0276" y1="17.8005" x2="59.5804" y2="21.3265" gradientUnits="userSpaceOnUse">
<stop stop-color="#33CC33"/>
<stop offset="1" stop-color="#339C4C"/>
</linearGradient>
<linearGradient id="paint1_linear_3892:22770" x1="39.4924" y1="40.2027" x2="60.8035" y2="61.0001" gradientUnits="userSpaceOnUse">
<stop stop-color="#33CC33"/>
<stop offset="1" stop-color="#339C4C"/>
</linearGradient>
<linearGradient id="paint2_linear_3892:22770" x1="18.0042" y1="51.3139" x2="22.9782" y2="56.2504" gradientUnits="userSpaceOnUse">
<stop stop-color="#33CC33"/>
<stop offset="1" stop-color="#339C4C"/>
</linearGradient>
<linearGradient id="paint3_linear_3892:22770" x1="58.2463" y1="34.8244" x2="64.2861" y2="40.8184" gradientUnits="userSpaceOnUse">
<stop stop-color="#33CC33"/>
<stop offset="1" stop-color="#339C4C"/>
</linearGradient>
</defs>
</svg>
