<svg width="80" height="80" viewBox="0 0 80 80" fill="none" xmlns="http://www.w3.org/2000/svg">
<path d="M62.1526 34.1947C61.9242 33.9574 61.6232 33.803 61.2972 33.7557V33.8002L47.5041 31.798L41.3343 19.2359C40.9689 18.5028 40.0785 18.2047 39.3453 18.5701C39.057 18.7138 38.8232 18.9476 38.6795 19.2359L32.5097 31.7387L18.7166 33.7409C17.9061 33.8584 17.3442 34.6109 17.4619 35.4216C17.5091 35.7476 17.6636 36.0486 17.9009 36.277L27.8823 46.0064L25.5242 59.7401C25.3899 60.5483 25.9361 61.3121 26.744 61.4463C27.0622 61.4991 27.3888 61.4469 27.6747 61.2974L39.9995 54.831L52.3391 61.3123C53.065 61.6919 53.9611 61.4113 54.3408 60.6856C54.4902 60.4 54.5425 60.0731 54.4897 59.755L52.1315 46.0212L62.113 36.2919C62.7031 35.7238 62.7209 34.7848 62.1526 34.1947ZM49.5064 44.4491C49.158 44.7874 48.9973 45.275 49.0763 45.7542L51.0488 57.3078L40.6669 51.8499C40.2351 51.6232 39.7194 51.6232 39.2876 51.8499L28.9057 57.3078L30.8783 45.7542C30.9572 45.275 30.7965 44.7874 30.4482 44.4491L22.0536 36.277L33.6517 34.5863C34.1341 34.5138 34.5499 34.2088 34.7641 33.7705L39.9995 23.2997L45.1905 33.8002C45.4046 34.2385 45.8204 34.5434 46.3028 34.6159L57.9009 36.3067L49.5064 44.4491Z" fill="url(#paint0_linear_392514385)"/>
<path d="M79.7033 38.1164L73.2814 30.1816L74.2454 20.1112C74.2929 19.4697 73.9215 18.8707 73.3259 18.6281L63.9228 14.7868L59.7107 5.59135C59.4356 4.99643 58.8023 4.65253 58.1535 4.74597L48.1423 6.2291L39.8961 0.29658C39.3689 -0.0988598 38.6436 -0.0988598 38.1164 0.29658L30.1816 6.71853L20.1112 5.7545C19.466 5.70926 18.8657 6.08727 18.6281 6.68887L14.7868 16.0771L5.59135 20.2892C4.99643 20.5643 4.65253 21.1976 4.74597 21.8464L6.2291 31.8576L0.29658 40.1038C-0.0988598 40.631 -0.0988598 41.3563 0.29658 41.8835L6.57022 49.8183L5.60618 59.8887C5.56095 60.5339 5.93896 61.1342 6.54055 61.3718L16.0771 65.2132L20.2892 74.4086C20.5643 75.0035 21.1976 75.3474 21.8464 75.2539L31.8576 73.7708L40.1038 79.7033C40.631 80.0988 41.3563 80.0988 41.8835 79.7033L49.8183 73.4297L59.8887 74.3937C60.5302 74.4412 61.1292 74.0698 61.3718 73.4742L65.2132 63.9228L74.4086 59.7107C75.0035 59.4356 75.3472 58.8023 75.2539 58.1535L73.7708 48.1423L79.7033 39.8961C80.0988 39.3689 80.0988 38.6438 79.7033 38.1164ZM70.9677 46.9113C70.7502 47.222 70.66 47.6041 70.7156 47.9792L72.0949 57.4712L63.3592 61.4608C63.0137 61.6208 62.7428 61.9076 62.6028 62.2617L59.0582 71.1605L49.5068 70.2558C49.1288 70.2211 48.7521 70.3326 48.4538 70.5673L40.9195 76.4998L33.1034 70.938C32.8529 70.7567 32.5522 70.6583 32.2432 70.6562H32.0355L22.5435 72.0355L18.5539 63.3147C18.3939 62.9692 18.1071 62.6983 17.753 62.5584L8.85424 59.0137L9.75894 49.4623C9.79361 49.0843 9.68219 48.7076 9.44749 48.4093L3.51497 40.875L9.0767 33.0589C9.29417 32.7482 9.38445 32.3661 9.32884 31.9911L7.94953 22.499L16.6852 18.5094C17.0307 18.3494 17.3016 18.0626 17.4416 17.7085L20.9862 8.80974L30.5376 9.71445C30.9156 9.74912 31.2923 9.6377 31.5906 9.40299L39.1249 3.47048L46.941 9.03221C47.2517 9.24968 47.6338 9.33996 48.0089 9.28434L57.5009 7.90503L61.4905 16.6407C61.6505 16.9862 61.9373 17.2571 62.2914 17.3971L71.1902 20.9417L70.2855 30.4931C70.2508 30.8711 70.3622 31.2478 70.5969 31.5461L76.5294 39.0804L70.9677 46.9113Z" fill="url(#paint1_linear_392514385)"/>
<defs>
<linearGradient id="paint0_linear_392514385" x1="41.9347" y1="41.8117" x2="54.3319" y2="54.7018" gradientUnits="userSpaceOnUse">
<stop stop-color="#33CC33"/>
<stop offset="1" stop-color="#339C4C"/>
</linearGradient>
<linearGradient id="paint1_linear_392514385" x1="43.418" y1="43.4624" x2="66.4633" y2="66.3332" gradientUnits="userSpaceOnUse">
<stop stop-color="#33CC33"/>
<stop offset="1" stop-color="#339C4C"/>
</linearGradient>
</defs>
</svg>
