<svg width="80" height="80" viewBox="0 0 80 80" fill="none" xmlns="http://www.w3.org/2000/svg">
<path d="M65.0701 63.9824C64.4312 63.9824 63.9133 64.5003 63.9133 65.1391V76.0147C63.9133 76.3668 63.6268 76.6534 63.2746 76.6534H57.0564V53.8737C57.0564 53.2348 56.5385 52.7169 55.8997 52.7169C55.2609 52.7169 54.7429 53.2348 54.7429 53.8737V76.6535H42.2216L45.8527 72.6589C46.2493 72.2224 46.4364 71.6007 46.353 70.9952C46.3514 70.9835 46.3496 70.9718 46.3476 70.96L42.8892 50.5293L43.821 49.1267C44.3361 49.4925 44.7329 49.8448 45.4771 49.8448C46.2341 49.8448 46.9419 49.4211 47.2901 48.7237V48.7235L50.9377 41.4129L59.2472 44.631C59.5478 44.7599 63.913 46.7257 63.913 51.9166V59.7408C63.9129 60.3795 64.4308 60.8976 65.0698 60.8976C65.7086 60.8976 66.2265 60.3797 66.2265 59.7408V51.9166C66.2265 45.0773 60.3704 42.5912 60.1212 42.4887C60.1139 42.4856 60.1065 42.4826 60.0991 42.4799L46.2694 37.124V33.8805C48.466 32.1722 49.989 29.6398 50.3714 26.7507C51.4666 26.6736 52.4828 26.2646 53.3127 25.551C54.3965 24.6189 55.0184 23.2625 55.0184 21.83C55.0184 20.6411 54.5895 19.506 53.8251 18.6214V14.3364C53.825 6.43135 47.3938 0 39.4887 0C31.5837 0 25.1525 6.43135 25.1525 14.3364V18.7337C24.3799 19.6093 23.9598 20.6871 23.9598 21.8298C23.9598 23.2628 24.5813 24.6191 25.6654 25.5513C26.4948 26.2646 27.5104 26.6732 28.6053 26.7504C28.9907 29.6937 30.5582 32.3204 32.9418 34.0517V37.124L19.1271 42.4797C19.1198 42.4825 19.1126 42.4854 19.1053 42.4883C18.8559 42.5909 13 45.077 13 51.9163V76.0144C13 77.6423 14.3244 78.9667 15.9523 78.9667H26.9733C27.6122 78.9667 28.1301 78.4488 28.1301 77.81C28.1301 77.1711 27.6122 76.6532 26.9733 76.6532H24.4845V53.8737C24.4845 53.2348 23.9666 52.7169 23.3277 52.7169C22.6889 52.7169 22.171 53.2348 22.171 53.8737V76.6535H15.9525C15.6004 76.6535 15.3138 76.367 15.3138 76.0149V51.9164C15.3138 46.7082 19.7084 44.7468 19.9783 44.6314L28.2812 41.4126L31.9291 48.7235C32.2782 49.4227 32.9869 49.8448 33.7423 49.8448C34.4828 49.8448 34.8758 49.4979 35.3985 49.1267L36.3302 50.5293L32.8721 70.9602C32.8701 70.9717 32.8684 70.9833 32.8667 70.995C32.7831 71.6003 32.9702 72.2223 33.3671 72.6591L36.9982 76.6537H32.3719C31.7331 76.6537 31.2152 77.1716 31.2152 77.8104C31.2152 78.4493 31.7331 78.9672 32.3719 78.9672H63.2748C64.9027 78.9672 66.2271 77.6426 66.2271 76.0149V65.1393C66.2268 64.5003 65.7089 63.9824 65.0701 63.9824ZM48.7709 40.5739L45.3702 47.3894C45.2857 47.3294 43.4835 46.049 41.2804 44.4846C42.2364 43.3046 41.118 44.6849 45.481 39.2997L48.7709 40.5739ZM41.9335 47.7864L41.0516 49.1139H38.1669L37.285 47.7864L39.6093 46.1357L41.9335 47.7864ZM35.2552 37.4972V35.3324C36.6605 35.8989 38.1625 36.1616 39.6292 36.1616C41.1458 36.1616 42.6331 35.8383 43.9558 35.2599V37.5066L39.6093 42.8716L35.2552 37.4972ZM52.7048 21.83C52.7046 22.5877 52.3764 23.3047 51.8042 23.7969C51.4259 24.1223 50.9689 24.3304 50.4684 24.4118V19.2486C51.7979 19.4645 52.7048 20.5672 52.7048 21.83ZM28.5096 24.4118C27.165 24.1936 26.2733 23.0819 26.2733 21.8298C26.2733 20.5932 27.2985 19.5866 28.5096 19.3067V24.4118ZM28.5718 16.9496C28.2033 16.9918 27.7811 17.0916 27.4663 17.1987V14.3364C27.4663 7.70701 32.8595 2.31365 39.4889 2.31365C46.1182 2.31365 51.5115 7.70701 51.5115 14.3364V17.1192C51.1752 17.017 50.8265 16.9494 50.4685 16.9176C50.4685 15.8015 50.4783 16.0168 46.8268 12.0911C46.1553 11.3696 45.0445 11.2184 44.1991 11.7707C40.169 14.4033 35.2529 15.7259 30.7169 15.4001C29.7219 15.3256 28.8156 15.981 28.5718 16.9496ZM30.8233 25.3226V18.1057V17.7255C35.8166 18.0179 41.0517 16.5345 45.2809 13.826C46.9556 15.6241 47.8625 16.5672 48.1549 16.926C48.1549 17.8335 48.1549 24.2836 48.1549 25.3224C48.1549 30.0183 44.3259 33.8478 39.6294 33.8478C34.3555 33.8479 30.8233 29.7567 30.8233 25.3226ZM33.8486 47.3894L30.4479 40.5739L33.732 39.3019L37.9334 44.488C35.7968 46.0052 34.0424 47.2517 33.8486 47.3894ZM35.1757 71.2096L38.524 51.4272H40.6942L44.0424 71.2096L39.6092 76.0869L35.1757 71.2096Z" fill="url(#paint0_linear_3892:22794)"/>
<defs>
<linearGradient id="paint0_linear_3892:22794" x1="41.8877" y1="42.9013" x2="62.9137" y2="56.9664" gradientUnits="userSpaceOnUse">
<stop stop-color="#33CC33"/>
<stop offset="1" stop-color="#339C4C"/>
</linearGradient>
</defs>
</svg>
